<?xml version="1.0" encoding="UTF-8"?>
<svg version="1.1" xmlns="http://www.w3.org/2000/svg" width="492" height="507">
<path d="M0 0 C28.92793293 -0.02332523 57.85586446 -0.04097732 86.78380489 -0.05181217 C89.45377033 -0.0528387 92.12373575 -0.05387339 94.79370117 -0.05493164 C95.45735534 -0.05519395 96.12100951 -0.05545626 96.80477441 -0.05572652 C107.56440169 -0.06008323 118.32402366 -0.06797078 129.08364778 -0.0771528 C140.11596341 -0.08648932 151.14827609 -0.09198071 162.18059546 -0.09408849 C168.38066064 -0.09539602 174.58071375 -0.09848448 180.78077507 -0.10573006 C186.60911186 -0.11248644 192.43743153 -0.11461774 198.26577187 -0.11310768 C200.41166654 -0.11338418 202.55756176 -0.11539156 204.70345306 -0.11920547 C207.61957918 -0.12413676 210.53563952 -0.12300039 213.45176697 -0.12025452 C214.31264465 -0.12316736 215.17352233 -0.1260802 216.06048721 -0.12908131 C221.88587879 -0.11412121 221.88587879 -0.11412121 223 1 C223.09792582 3.84470302 223.12992707 6.66514405 223.12025452 9.51026917 C223.12153854 10.86196449 223.12153854 10.86196449 223.12284851 12.2409668 C223.1245142 15.29420907 223.11896313 18.34739744 223.11352539 21.40063477 C223.11321931 23.61347674 223.11335211 25.8263188 223.11389065 28.03916073 C223.11411724 33.98744706 223.10830392 39.93571345 223.10128021 45.88399506 C223.09560282 51.45712856 223.09531805 57.03025711 223.09460449 62.60339355 C223.08934846 78.92309837 223.07538743 95.24279943 223.0625 111.5625 C223.041875 148.006875 223.02125 184.45125 223 222 C146.77 222 70.54 222 -8 222 C-8 166.89 -8 111.78 -8 55 C-2.78298651 55.86950225 0.24369456 56.86508509 4.875 59.125 C6.20228492 59.7634681 7.53044064 60.4001285 8.859375 61.03515625 C9.54064453 61.3614502 10.22191406 61.68774414 10.92382812 62.02392578 C14.29330176 63.60802216 17.70759229 65.08538326 21.125 66.5625 C27.14670724 69.17363119 33.11865827 71.87649256 39.0703125 74.64453125 C43.02727649 76.47528659 47.01032374 78.24183758 51 80 C51.66 74.39 52.32 68.78 53 63 C48.75144416 61.08009867 44.50162948 59.16307711 40.25 57.25 C39.60717072 56.96054504 38.96434143 56.67109009 38.30203247 56.37286377 C30.88951337 53.03852215 23.46255039 49.74590045 15.98046875 46.5703125 C15.34172821 46.29892456 14.70298767 46.02753662 14.04489136 45.7479248 C10.97966377 44.44746267 7.9113865 43.15527444 4.83886719 41.87207031 C3.73575195 41.40639648 2.63263672 40.94072266 1.49609375 40.4609375 C0.04481079 39.85451416 0.04481079 39.85451416 -1.43579102 39.23583984 C-3.95841265 38.02004333 -5.96810239 36.93037651 -8 35 C-8.45410156 33.09887695 -8.45410156 33.09887695 -8.390625 30.98828125 C-8.37773437 30.23095703 -8.36484375 29.47363281 -8.3515625 28.69335938 C-8.31804687 27.90767578 -8.28453125 27.12199219 -8.25 26.3125 C-8.23195312 25.51521484 -8.21390625 24.71792969 -8.1953125 23.89648438 C-8.14822247 21.93047551 -8.07647899 19.96508506 -8 18 C-4.12620097 18.63159287 -0.88294349 19.79683534 2.69140625 21.40625 C3.79154053 21.89859131 4.8916748 22.39093262 6.02514648 22.89819336 C7.19247314 23.42678955 8.3597998 23.95538574 9.5625 24.5 C10.76527588 25.03955322 11.96805176 25.57910645 13.20727539 26.13500977 C16.80777589 27.75023367 20.40416214 29.37442176 24 31 C27.64560287 32.64634437 31.29141481 34.29222408 34.9375 35.9375 C35.74034424 36.30029053 36.54318848 36.66308105 37.37036133 37.03686523 C43.53200446 39.81247909 49.73456676 42.46581054 56 45 C56.34018163 43.29301718 56.6718089 41.58432867 57 39.875 C57.2784375 38.44800781 57.2784375 38.44800781 57.5625 36.9921875 C58.0075532 33.94834148 58.02985464 31.07129562 58 28 C57.29544678 27.70794678 56.59089355 27.41589355 55.86499023 27.11499023 C47.91090791 23.81024837 39.98112789 20.45123884 32.0625 17.0625 C30.89009766 16.56298828 29.71769531 16.06347656 28.50976562 15.54882812 C18.55104598 11.28709001 8.67291355 6.88008519 -1 2 C-0.67 1.34 -0.34 0.68 0 0 Z " fill="#F7921F" transform="translate(143,60)"/>
<path d="M0 0 C3.87379903 0.63159287 7.11705651 1.79683534 10.69140625 3.40625 C11.79154053 3.89859131 12.8916748 4.39093262 14.02514648 4.89819336 C15.19247314 5.42678955 16.3597998 5.95538574 17.5625 6.5 C18.76527588 7.03955322 19.96805176 7.57910645 21.20727539 8.13500977 C24.80777589 9.75023367 28.40416214 11.37442176 32 13 C35.64560287 14.64634437 39.29141481 16.29222408 42.9375 17.9375 C44.14176636 18.48168579 44.14176636 18.48168579 45.37036133 19.03686523 C51.53200446 21.81247909 57.73456676 24.46581054 64 27 C64.66 24.69 65.32 22.38 66 20 C66.66 20 67.32 20 68 20 C67.98839844 19.40832031 67.97679687 18.81664063 67.96484375 18.20703125 C67.95582031 17.41683594 67.94679688 16.62664062 67.9375 15.8125 C67.92589844 15.03519531 67.91429687 14.25789063 67.90234375 13.45703125 C68.00486419 10.87761706 68.46914924 8.52200033 69 6 C77.57244107 5.90647494 86.14466174 5.83582374 94.7174902 5.79275131 C98.70011109 5.77205734 102.68237779 5.74408237 106.66479492 5.69824219 C110.52280106 5.65412239 114.38047106 5.63072703 118.2387104 5.62049103 C119.69561606 5.61321608 121.15250765 5.59901871 122.60926628 5.57707977 C139.68469749 5.33063368 158.48236534 8.19789892 171.4765625 20.3046875 C181.58695087 31.55573507 183.63847292 43.21689629 183 58 C182.61361338 61.43835183 181.93435973 64.67067222 181 68 C180.75507813 68.88171875 180.51015625 69.7634375 180.2578125 70.671875 C175.19897271 86.51992177 163.30225504 96.41586843 149 104 C148.01 104.33 147.02 104.66 146 105 C147.20090371 111.04883481 148.82527064 116.7264075 151.01171875 122.48828125 C151.30112839 123.26585281 151.59053802 124.04342438 151.88871765 124.84455872 C152.50207365 126.49099263 153.11797028 128.13648206 153.73626709 129.78106689 C155.01608563 133.18693626 156.28166512 136.59803215 157.54772949 140.0090332 C158.17158139 141.68974932 158.79600587 143.37025303 159.42102051 145.05053711 C161.7800831 151.39415467 164.11396151 157.74566352 166.375 164.125 C166.7939856 165.2838269 166.7939856 165.2838269 167.22143555 166.46606445 C168.42221177 169.88286547 169 172.3264094 169 176 C156.79 176 144.58 176 132 176 C131.154375 173.1125 130.30875 170.225 129.4375 167.25 C127.27162405 159.94961378 124.9255107 152.73736569 122.375 145.5625 C118.53974352 134.75993047 115.25507539 124.27537696 113 113 C103.43 113 93.86 113 84 113 C84 115.97 84 118.94 84 122 C83.62036133 124.96411133 83.62036133 124.96411133 83.08203125 127.58203125 C82.88182373 128.58379395 82.68161621 129.58555664 82.4753418 130.61767578 C82.14723511 132.19911377 82.14723511 132.19911377 81.8125 133.8125 C81.35497585 136.09729754 80.89931658 138.38246914 80.4453125 140.66796875 C80.09001465 142.44953369 80.09001465 142.44953369 79.72753906 144.26708984 C77.67140615 154.81684563 75.87081005 165.4165603 74 176 C62.78 176 51.56 176 40 176 C40 168.1358085 40 168.1358085 40.84765625 163.8515625 C41.037229 162.86704102 41.22680176 161.88251953 41.42211914 160.86816406 C41.63344482 159.79791992 41.84477051 158.72767578 42.0625 157.625 C42.5235727 155.21666867 42.98170925 152.80777406 43.4375 150.3984375 C43.56057022 149.7480249 43.68364044 149.0976123 43.81044006 148.42749023 C45.50784371 139.38830941 47.02623386 130.31765939 48.5625 121.25 C48.8655274 119.46410581 49.16858709 117.67821711 49.47167969 115.89233398 C49.91213401 113.29655917 50.35249237 110.7007684 50.79241943 108.10490417 C52.1000608 100.39406248 53.43523908 92.68815827 54.78662109 84.98486328 C55.78168435 79.30273184 56.72643346 73.61546893 57.60546875 67.9140625 C58 66 58 66 59 65 C59.21221334 62.77470737 59.36941694 60.54407117 59.5 58.3125 C59.76684234 53.80000545 60.22585626 49.45171828 61 45 C56.75197466 43.0789423 52.50162507 41.16307512 48.25 39.25 C47.60717072 38.96054504 46.96434143 38.67109009 46.30203247 38.37286377 C38.88951337 35.03852215 31.46255039 31.74590045 23.98046875 28.5703125 C23.34172821 28.29892456 22.70298767 28.02753662 22.04489136 27.7479248 C18.97966377 26.44746267 15.9113865 25.15527444 12.83886719 23.87207031 C11.73575195 23.40639648 10.63263672 22.94072266 9.49609375 22.4609375 C8.04481079 21.85451416 8.04481079 21.85451416 6.56420898 21.23583984 C4.04158735 20.02004333 2.03189761 18.93037651 0 17 C-0.45410156 15.09887695 -0.45410156 15.09887695 -0.390625 12.98828125 C-0.37773437 12.23095703 -0.36484375 11.47363281 -0.3515625 10.69335938 C-0.31804687 9.90767578 -0.28453125 9.12199219 -0.25 8.3125 C-0.23195312 7.51521484 -0.21390625 6.71792969 -0.1953125 5.89648438 C-0.14822247 3.93047551 -0.07647899 1.96508506 0 0 Z " fill="#040101" transform="translate(135,78)"/>
<path d="M0 0 C5.84898479 3.18700588 14.04195239 7.78688489 16.1796875 14.5703125 C16.27894531 15.158125 16.37820313 15.7459375 16.48046875 16.3515625 C14.55100847 17.71863746 12.61336398 19.07001204 10.66796875 20.4140625 C9.58902344 21.16816406 8.51007813 21.92226563 7.3984375 22.69921875 C6.43550781 23.24449219 5.47257813 23.78976562 4.48046875 24.3515625 C1.20688052 23.26036642 0.64952636 22.59516604 -1.39453125 19.9765625 C-5.12158039 15.48569835 -8.63508528 13.05209178 -14.51953125 12.3515625 C-20.30273351 11.9150944 -24.30626006 13.16425524 -29.51953125 15.3515625 C-30.50953125 15.6815625 -31.49953125 16.0115625 -32.51953125 16.3515625 C-32.51953125 17.0115625 -32.51953125 17.6715625 -32.51953125 18.3515625 C-33.17953125 18.3515625 -33.83953125 18.3515625 -34.51953125 18.3515625 C-35.19514873 20.0146209 -35.85886406 21.68250855 -36.51953125 23.3515625 C-36.91591797 24.22361328 -36.91591797 24.22361328 -37.3203125 25.11328125 C-40.58879172 32.75005971 -40.59086853 40.60009223 -37.51953125 48.3515625 C-35.22509387 52.32426326 -33.05723051 55.83899608 -28.51953125 57.3515625 C-28.51953125 58.0115625 -28.51953125 58.6715625 -28.51953125 59.3515625 C-20.67813575 61.0023826 -13.35108622 61.59274967 -6.20703125 57.57421875 C-3.83193604 55.8533743 -2.22604283 53.71442469 -0.51953125 51.3515625 C0.14046875 51.3515625 0.80046875 51.3515625 1.48046875 51.3515625 C1.48046875 50.3615625 1.48046875 49.3715625 1.48046875 48.3515625 C5.31037581 48.99899917 8.00885855 50.80467487 11.23046875 52.9140625 C12.2153125 53.55472656 13.20015625 54.19539063 14.21484375 54.85546875 C14.9625 55.34917969 15.71015625 55.84289062 16.48046875 56.3515625 C16.15046875 57.6715625 15.82046875 58.9915625 15.48046875 60.3515625 C14.82046875 60.3515625 14.16046875 60.3515625 13.48046875 60.3515625 C13.23167969 60.93550781 12.98289062 61.51945312 12.7265625 62.12109375 C11.30551438 64.66472534 9.7485396 66.14563948 7.54296875 68.0390625 C6.85332031 68.64105469 6.16367187 69.24304688 5.453125 69.86328125 C3.48046875 71.3515625 3.48046875 71.3515625 0.48046875 72.3515625 C7.41046875 72.6815625 14.34046875 73.0115625 21.48046875 73.3515625 C21.48046875 48.2715625 21.48046875 23.1915625 21.48046875 -2.6484375 C38.97046875 -2.6484375 56.46046875 -2.6484375 74.48046875 -2.6484375 C74.48046875 1.9715625 74.48046875 6.5915625 74.48046875 11.3515625 C62.60046875 11.3515625 50.72046875 11.3515625 38.48046875 11.3515625 C38.48046875 27.8515625 38.48046875 44.3515625 38.48046875 61.3515625 C50.36046875 61.3515625 62.24046875 61.3515625 74.48046875 61.3515625 C74.48046875 65.3115625 74.48046875 69.2715625 74.48046875 73.3515625 C76.79046875 73.3515625 79.10046875 73.3515625 81.48046875 73.3515625 C81.48046875 48.2715625 81.48046875 23.1915625 81.48046875 -2.6484375 C87.09046875 -2.6484375 92.70046875 -2.6484375 98.48046875 -2.6484375 C98.48046875 22.4315625 98.48046875 47.5115625 98.48046875 73.3515625 C107.72046875 73.3515625 116.96046875 73.3515625 126.48046875 73.3515625 C126.48046875 53.2215625 126.48046875 33.0915625 126.48046875 12.3515625 C119.22046875 12.3515625 111.96046875 12.3515625 104.48046875 12.3515625 C103.64000458 8.98970584 103.34542011 6.56552662 103.35546875 3.1640625 C103.35289062 2.28363281 103.3503125 1.40320313 103.34765625 0.49609375 C103.48046875 -1.6484375 103.48046875 -1.6484375 104.48046875 -2.6484375 C107.3645805 -2.73708262 110.22529684 -2.76372276 113.109375 -2.74609375 C114.25786926 -2.74458313 114.25786926 -2.74458313 115.42956543 -2.74304199 C118.30071502 -2.73779413 121.17184333 -2.72383297 124.04296875 -2.7109375 C130.45734375 -2.6903125 136.87171875 -2.6696875 143.48046875 -2.6484375 C143.48046875 22.4315625 143.48046875 47.5115625 143.48046875 73.3515625 C152.06046875 73.3515625 160.64046875 73.3515625 169.48046875 73.3515625 C169.48046875 74.3415625 169.48046875 75.3315625 169.48046875 76.3515625 C166.76299567 77.71029904 164.64047353 77.47566507 161.5965023 77.47461033 C159.70427045 77.4775969 159.70427045 77.4775969 157.7738117 77.48064381 C156.3608755 77.47779039 154.94793949 77.47484479 153.53500366 77.47181702 C152.04422443 77.47225271 150.55344528 77.47312759 149.06266654 77.47440618 C144.95120738 77.47665147 140.83977407 77.4726294 136.72831821 77.46762812 C132.30022747 77.46332429 127.87213827 77.46477 123.44404602 77.4655304 C115.76712064 77.46605567 108.09020374 77.46290847 100.41328049 77.45729256 C89.31363055 77.44917808 78.21398473 77.44656239 67.11433215 77.44530457 C49.10746911 77.44311396 31.10061059 77.43645366 13.09375 77.42700195 C-4.402018 77.41782805 -21.89778477 77.41074711 -39.39355469 77.40649414 C-40.47133464 77.40623142 -41.5491146 77.40596869 -42.65955456 77.40569801 C-48.066263 77.40439301 -53.47297146 77.40312929 -58.87967992 77.40188611 C-103.75963349 77.39151324 -148.63958214 77.3738947 -193.51953125 77.3515625 C-193.84953125 76.0315625 -194.17953125 74.7115625 -194.51953125 73.3515625 C-193.19953125 73.3515625 -191.87953125 73.3515625 -190.51953125 73.3515625 C-190.51953125 48.2715625 -190.51953125 23.1915625 -190.51953125 -2.6484375 C-183.96078125 -2.7309375 -177.40203125 -2.8134375 -170.64453125 -2.8984375 C-167.57035889 -2.95306152 -167.57035889 -2.95306152 -164.43408203 -3.00878906 C-153.58330185 -3.12126646 -145.46872227 -2.57714855 -136.20703125 3.5390625 C-129.10678733 10.96955033 -127.08604223 18.61674433 -127.1796875 28.69921875 C-127.84139745 35.81069922 -130.75156181 41.0904375 -136.08203125 45.7890625 C-137.21161119 46.66461027 -138.35600693 47.52165534 -139.51953125 48.3515625 C-140.87340414 49.32357381 -142.21808323 50.31040409 -143.51953125 51.3515625 C-143.51953125 52.0115625 -143.51953125 52.6715625 -143.51953125 53.3515625 C-142.85953125 53.3515625 -142.19953125 53.3515625 -141.51953125 53.3515625 C-140.01171875 55.03125 -140.01171875 55.03125 -138.39453125 57.2265625 C-137.85570312 57.94585937 -137.316875 58.66515625 -136.76171875 59.40625 C-135.51953125 61.3515625 -135.51953125 61.3515625 -135.51953125 63.3515625 C-134.85953125 63.3515625 -134.19953125 63.3515625 -133.51953125 63.3515625 C-132.52953125 64.8365625 -132.52953125 64.8365625 -131.51953125 66.3515625 C-130.85953125 66.3515625 -130.19953125 66.3515625 -129.51953125 66.3515625 C-129.30337158 65.77301514 -129.08721191 65.19446777 -128.86450195 64.59838867 C-121.66894469 45.3892131 -121.66894469 45.3892131 -117.796875 37.21484375 C-115.71432415 32.54661814 -113.94105071 27.75884264 -112.11401367 22.98608398 C-110.14256381 17.86765801 -108.02720893 12.85705737 -105.66015625 7.90625 C-104.11937492 4.45532195 -102.84652292 0.89020696 -101.51953125 -2.6484375 C-95.57953125 -2.6484375 -89.63953125 -2.6484375 -83.51953125 -2.6484375 C-86.8809368 14.15859023 -95.7929931 30.65630683 -102.51953125 46.3515625 C-95.58953125 46.3515625 -88.65953125 46.3515625 -81.51953125 46.3515625 C-82.26203125 44.7428125 -83.00453125 43.1340625 -83.76953125 41.4765625 C-91.13271987 25.17685436 -91.13271987 25.17685436 -90.51953125 19.3515625 C-89.19953125 18.6915625 -87.87953125 18.0315625 -86.51953125 17.3515625 C-86.51953125 16.6915625 -86.51953125 16.0315625 -86.51953125 15.3515625 C-81.40844984 10.35664203 -81.40844984 10.35664203 -78.46875 10.33984375 C-75.45205014 11.90562584 -75.15557469 14.06908179 -74.08203125 17.2265625 C-72.6483678 21.37269721 -71.09707667 25.33091174 -69.2421875 29.30859375 C-65.94568821 36.45824744 -63.18934304 43.80879181 -60.39453125 51.1640625 C-59.60503798 53.24041527 -58.81444705 55.31631087 -58.02005005 57.39079285 C-57.30457589 59.25917691 -56.59331508 61.12917285 -55.88232422 62.99926758 C-54.58685231 66.18596137 -53.05792423 69.27477655 -51.51953125 72.3515625 C-46.56953125 72.3515625 -41.61953125 72.3515625 -36.51953125 72.3515625 C-37.86015625 71.5265625 -39.20078125 70.7015625 -40.58203125 69.8515625 C-49.95107292 63.56134113 -55.0599645 55.66470282 -57.76953125 44.7890625 C-60.13990594 32.4246756 -56.45348485 22.16402341 -50.51953125 11.3515625 C-49.85953125 11.3515625 -49.19953125 11.3515625 -48.51953125 11.3515625 C-48.26171875 10.7534375 -48.00390625 10.1553125 -47.73828125 9.5390625 C-39.17445067 -5.83191547 -13.90893111 -6.71983446 0 0 Z M-173.51953125 12.3515625 C-173.51953125 20.2715625 -173.51953125 28.1915625 -173.51953125 36.3515625 C-170.17828125 36.4340625 -166.83703125 36.5165625 -163.39453125 36.6015625 C-161.8319458 36.65618652 -161.8319458 36.65618652 -160.23779297 36.71191406 C-154.51337036 36.78017992 -150.93743718 36.38837112 -146.51953125 32.3515625 C-143.80916291 28.37635561 -143.70731192 23.99970879 -144.51953125 19.3515625 C-146.23321734 16.28094282 -148.32854577 13.94705524 -151.51953125 12.3515625 C-153.18699185 12.26730156 -154.85778312 12.24431107 -156.52734375 12.25390625 C-157.85983154 12.25765259 -157.85983154 12.25765259 -159.21923828 12.26147461 C-160.34958496 12.27057861 -161.47993164 12.27968262 -162.64453125 12.2890625 C-166.23328125 12.3096875 -169.82203125 12.3303125 -173.51953125 12.3515625 Z M-173.51953125 52.3515625 C-173.51953125 59.2815625 -173.51953125 66.2115625 -173.51953125 73.3515625 C-165.26953125 73.3515625 -157.01953125 73.3515625 -148.51953125 73.3515625 C-152.04849172 67.76825132 -152.04849172 67.76825132 -154.83203125 64.7265625 C-156.51953125 62.3515625 -156.51953125 62.3515625 -156.37890625 60.37109375 C-155.24947942 57.7169407 -153.95002888 57.05785482 -151.45703125 55.6640625 C-150.13332149 54.91264202 -148.81737511 54.14682446 -147.51953125 53.3515625 C-147.51953125 53.0215625 -147.51953125 52.6915625 -147.51953125 52.3515625 C-156.09953125 52.3515625 -164.67953125 52.3515625 -173.51953125 52.3515625 Z M-109.51953125 62.3515625 C-113.65491074 70.01469005 -113.65491074 70.01469005 -113.51953125 73.3515625 C-99.32953125 73.3515625 -85.13953125 73.3515625 -70.51953125 73.3515625 C-72.26400628 67.74572059 -72.26400628 67.74572059 -74.51953125 62.3515625 C-86.06953125 62.3515625 -97.61953125 62.3515625 -109.51953125 62.3515625 Z " fill="#5B6267" transform="translate(260.51953125,307.6484375)"/>
<path d="M0 0 C5.94 0 11.88 0 18 0 C14.63859445 16.80702773 5.72653815 33.30474433 -1 49 C5.93 49 12.86 49 20 49 C19.2575 47.39125 18.515 45.7825 17.75 44.125 C10.38681138 27.82529186 10.38681138 27.82529186 11 22 C12.32 21.34 13.64 20.68 15 20 C15 19.34 15 18.68 15 18 C20.11108141 13.00507953 20.11108141 13.00507953 23.05078125 12.98828125 C26.06748111 14.55406334 26.36395656 16.71751929 27.4375 19.875 C28.8689043 24.01460129 30.4168764 27.96646199 32.26953125 31.9375 C35.61669762 39.19622031 38.40991532 46.65765541 41.25 54.125 C42.06028392 56.25271704 42.87159213 58.3800144 43.68621826 60.506073 C44.41493326 62.40812642 45.1397052 64.31168913 45.86425781 66.21533203 C46.73459142 68.86382569 46.73459142 68.86382569 48 70 C48 72.31 48 74.62 48 77 C42.72 77 37.44 77 32 77 C32 76.01 32 75.02 32 74 C31.34 74 30.68 74 30 74 C29.01 71.03 28.02 68.06 27 65 C15.45 65 3.9 65 -8 65 C-8.99 67.97 -9.98 70.94 -11 74 C-11.66 74 -12.32 74 -13 74 C-13 74.99 -13 75.98 -13 77 C-23.56 77 -34.12 77 -45 77 C-45.33 76.01 -45.66 75.02 -46 74 C-46.99 74 -47.98 74 -49 74 C-50.859375 72.171875 -50.859375 72.171875 -52.75 69.75 C-53.38421875 68.96109375 -54.0184375 68.1721875 -54.671875 67.359375 C-56 65 -56 65 -56.04296875 62.9375 C-54.48981251 60.05223597 -52.33750066 58.93881705 -49.5625 57.25 C-48.07943359 56.32960938 -48.07943359 56.32960938 -46.56640625 55.390625 C-44 54 -44 54 -42 54 C-42 54.66 -42 55.32 -42 56 C-41.34 56 -40.68 56 -40 56 C-38.4921875 57.6796875 -38.4921875 57.6796875 -36.875 59.875 C-36.33617188 60.59429687 -35.79734375 61.31359375 -35.2421875 62.0546875 C-34 64 -34 64 -34 66 C-33.34 66 -32.68 66 -32 66 C-31.34 66.99 -30.68 67.98 -30 69 C-29.34 69 -28.68 69 -28 69 C-27.78384033 68.42145264 -27.56768066 67.84290527 -27.3449707 67.24682617 C-20.14941344 48.0376506 -20.14941344 48.0376506 -16.27734375 39.86328125 C-14.1947929 35.19505564 -12.42151946 30.40728014 -10.59448242 25.63452148 C-8.62303256 20.51609551 -6.50767768 15.50549487 -4.140625 10.5546875 C-2.59984367 7.10375945 -1.32699167 3.53864446 0 0 Z " fill="#131313" transform="translate(159,305)"/>
<path d="M0 0 C6.55875 -0.0825 13.1175 -0.165 19.875 -0.25 C22.94917236 -0.30462402 22.94917236 -0.30462402 26.08544922 -0.36035156 C36.9362294 -0.47282896 45.05080898 0.07128895 54.3125 6.1875 C61.41274392 13.61798783 63.43348902 21.26518183 63.33984375 31.34765625 C62.69079818 38.32303109 59.81744787 43.64509394 54.6875 48.375 C53.13671875 49.6484375 53.13671875 49.6484375 51 51 C49.89269531 51.70898438 48.78539062 52.41796875 47.64453125 53.1484375 C41.72697827 56.04741657 35.43797222 55.42675531 29 55.25 C27.74832031 55.23195313 26.49664062 55.21390625 25.20703125 55.1953125 C22.13768806 55.1484523 19.06874205 55.07671855 16 55 C16 62.26 16 69.52 16 77 C10.72 77 5.44 77 0 77 C0 51.59 0 26.18 0 0 Z M17 15 C17 22.92 17 30.84 17 39 C20.34125 39.0825 23.6825 39.165 27.125 39.25 C28.68758545 39.30462402 28.68758545 39.30462402 30.28173828 39.36035156 C36.00616089 39.42861742 39.58209407 39.03680862 44 35 C46.71036834 31.02479311 46.81221933 26.64814629 46 22 C44.28631391 18.92938032 42.19098548 16.59549274 39 15 C37.3325394 14.91573906 35.66174813 14.89274857 33.9921875 14.90234375 C32.65969971 14.90609009 32.65969971 14.90609009 31.30029297 14.90991211 C30.16994629 14.91901611 29.03959961 14.92812012 27.875 14.9375 C24.28625 14.958125 20.6975 14.97875 17 15 Z " fill="#0E0E0E" transform="translate(70,305)"/>
<path d="M0 0 C5.84898479 3.18700588 14.04195239 7.78688489 16.1796875 14.5703125 C16.32857422 15.45203125 16.32857422 15.45203125 16.48046875 16.3515625 C14.55100847 17.71863746 12.61336398 19.07001204 10.66796875 20.4140625 C9.58902344 21.16816406 8.51007813 21.92226563 7.3984375 22.69921875 C6.43550781 23.24449219 5.47257812 23.78976562 4.48046875 24.3515625 C1.20688052 23.26036642 0.64952636 22.59516604 -1.39453125 19.9765625 C-5.12158039 15.48569835 -8.63508528 13.05209178 -14.51953125 12.3515625 C-20.30273351 11.9150944 -24.30626006 13.16425524 -29.51953125 15.3515625 C-30.50953125 15.6815625 -31.49953125 16.0115625 -32.51953125 16.3515625 C-32.51953125 17.0115625 -32.51953125 17.6715625 -32.51953125 18.3515625 C-33.17953125 18.3515625 -33.83953125 18.3515625 -34.51953125 18.3515625 C-35.19514873 20.0146209 -35.85886406 21.68250855 -36.51953125 23.3515625 C-36.78378906 23.93292969 -37.04804688 24.51429688 -37.3203125 25.11328125 C-40.58879172 32.75005971 -40.59086853 40.60009223 -37.51953125 48.3515625 C-35.22509387 52.32426326 -33.05723051 55.83899608 -28.51953125 57.3515625 C-28.51953125 58.0115625 -28.51953125 58.6715625 -28.51953125 59.3515625 C-20.67813575 61.0023826 -13.35108622 61.59274967 -6.20703125 57.57421875 C-3.83193604 55.8533743 -2.22604283 53.71442469 -0.51953125 51.3515625 C0.14046875 51.3515625 0.80046875 51.3515625 1.48046875 51.3515625 C1.48046875 50.3615625 1.48046875 49.3715625 1.48046875 48.3515625 C5.31037581 48.99899917 8.00885855 50.80467487 11.23046875 52.9140625 C12.2153125 53.55472656 13.20015625 54.19539063 14.21484375 54.85546875 C14.9625 55.34917969 15.71015625 55.84289062 16.48046875 56.3515625 C16.15046875 57.6715625 15.82046875 58.9915625 15.48046875 60.3515625 C14.82046875 60.3515625 14.16046875 60.3515625 13.48046875 60.3515625 C13.22394531 60.93808594 12.96742188 61.52460938 12.703125 62.12890625 C11.36460741 64.56218584 9.97530093 66.0562292 7.91796875 67.9140625 C7.29792969 68.49285156 6.67789063 69.07164062 6.0390625 69.66796875 C-1.41749616 74.57449819 -9.24989604 74.8466563 -17.95703125 74.7890625 C-19.02501953 74.80904297 -20.09300781 74.82902344 -21.19335938 74.84960938 C-32.31303214 74.84281666 -40.21097573 71.66540174 -48.25390625 63.9765625 C-55.21496739 55.91133304 -59.10863396 45.189548 -58.76953125 34.5078125 C-57.79327167 26.08757362 -54.56170584 18.71694783 -50.51953125 11.3515625 C-49.85953125 11.3515625 -49.19953125 11.3515625 -48.51953125 11.3515625 C-48.26171875 10.7534375 -48.00390625 10.1553125 -47.73828125 9.5390625 C-39.17445067 -5.83191547 -13.90893111 -6.71983446 0 0 Z " fill="#141515" transform="translate(260.51953125,307.6484375)"/>
<path d="M0 0 C5.08613544 -0.14956966 10.17096042 -0.25778195 15.25878906 -0.32958984 C16.98525319 -0.35955647 18.71156778 -0.40034571 20.4375 -0.45263672 C37.66196825 -0.96099776 37.66196825 -0.96099776 45.22851562 4.22460938 C49.50447107 8.50999361 51.14092012 14.17937107 51.375 20.125 C50.48910907 29.27920624 47.81133396 37.16801654 41.1796875 43.828125 C30.93909952 52.03717933 20.4500615 52.53653408 7.875 52.25 C6.33075246 52.2298943 4.7864795 52.21165076 3.2421875 52.1953125 C-0.5057448 52.15166203 -4.25270539 52.08286244 -8 52 C-7.44782935 45.24263366 -6.72577912 38.56479392 -5.625 31.875 C-5.49561035 31.07239746 -5.3662207 30.26979492 -5.23291016 29.44287109 C-3.63350189 19.60525618 -1.97005138 9.77070114 0 0 Z " fill="#F69220" transform="translate(233,112)"/>
<path d="M0 0 C17.16 0 34.32 0 52 0 C52 4.29 52 8.58 52 13 C40.12 13 28.24 13 16 13 C16 29.5 16 46 16 63 C27.88 63 39.76 63 52 63 C52 67.29 52 71.58 52 76 C34.84 76 17.68 76 0 76 C0 50.92 0 25.84 0 0 Z " fill="#070809" transform="translate(283,306)"/>
<path d="M0 0 C28.92793293 -0.02332523 57.85586446 -0.04097732 86.78380489 -0.05181217 C89.45377033 -0.0528387 92.12373575 -0.05387339 94.79370117 -0.05493164 C95.45735534 -0.05519395 96.12100951 -0.05545626 96.80477441 -0.05572652 C107.56440169 -0.06008323 118.32402366 -0.06797078 129.08364778 -0.0771528 C140.11596341 -0.08648932 151.14827609 -0.09198071 162.18059546 -0.09408849 C168.38066064 -0.09539602 174.58071375 -0.09848448 180.78077507 -0.10573006 C186.60911186 -0.11248644 192.43743153 -0.11461774 198.26577187 -0.11310768 C200.41166654 -0.11338418 202.55756176 -0.11539156 204.70345306 -0.11920547 C207.61957918 -0.12413676 210.53563952 -0.12300039 213.45176697 -0.12025452 C214.31264465 -0.12316736 215.17352233 -0.1260802 216.06048721 -0.12908131 C221.88587879 -0.11412121 221.88587879 -0.11412121 223 1 C223.09792582 3.84470302 223.12992707 6.66514405 223.12025452 9.51026917 C223.12153854 10.86196449 223.12153854 10.86196449 223.12284851 12.2409668 C223.1245142 15.29420907 223.11896313 18.34739744 223.11352539 21.40063477 C223.11321931 23.61347674 223.11335211 25.8263188 223.11389065 28.03916073 C223.11411724 33.98744706 223.10830392 39.93571345 223.10128021 45.88399506 C223.09560282 51.45712856 223.09531805 57.03025711 223.09460449 62.60339355 C223.08934846 78.92309837 223.07538743 95.24279943 223.0625 111.5625 C223.041875 148.006875 223.02125 184.45125 223 222 C146.77 222 70.54 222 -8 222 C-8 166.89 -8 111.78 -8 55 C-2.89354757 55.85107541 0.78365798 57.08490592 5.3125 59.3125 C6.63251546 59.94593187 7.95282746 60.57874617 9.2734375 61.2109375 C10.22621582 61.67064941 10.22621582 61.67064941 11.19824219 62.13964844 C14.76254539 63.84162736 18.38319404 65.4136816 22 67 C18.34811918 68.07174763 15.73567172 67.76411467 12 67 C12 66.34 12 65.68 12 65 C7.05 65.495 7.05 65.495 2 66 C2 65.34 2 64.68 2 64 C2.66 64 3.32 64 4 64 C3.2575 63.319375 3.2575 63.319375 2.5 62.625 C1 61 1 61 1 59 C-1.31 58.67 -3.62 58.34 -6 58 C-6 111.46 -6 164.92 -6 220 C33.56154328 219.85132023 33.56154328 219.85132023 73.12304688 219.69335938 C78.45239229 219.67139829 83.78173791 219.64948749 89.11108398 219.62768555 C89.77905524 219.62495036 90.44702649 219.62221517 91.1352393 219.6193971 C101.92719915 219.57529657 112.71916945 219.53468156 123.5111476 219.49534739 C134.58190939 219.45491979 145.652652 219.41068789 156.72338551 219.36312145 C162.94362379 219.33651687 169.1638582 219.31166368 175.38411903 219.29092598 C181.23382115 219.27136943 187.0834861 219.24722855 192.93315506 219.21950912 C195.08465209 219.21013349 197.23615728 219.20246006 199.3876667 219.19658089 C202.31625019 219.18832844 205.24474324 219.17405411 208.17329407 219.15821838 C209.03223701 219.15724028 209.89117996 219.15626217 210.77615148 219.15525442 C214.10108391 219.13200092 216.82376326 219.05874558 220 218 C220.495 111.08 220.495 111.08 221 2 C150.71 2 80.42 2 8 2 C11.41321235 5.41321235 13.06340351 5.72605419 17.6875 6.6875 C18.86699219 6.93886719 20.04648438 7.19023438 21.26171875 7.44921875 C22.16535156 7.63097656 23.06898438 7.81273438 24 8 C24 8.99 24 9.98 24 11 C24.99 11 25.98 11 27 11 C27 11.66 27 12.32 27 13 C28.32 13.33 29.64 13.66 31 14 C29.4375 14.6953125 29.4375 14.6953125 27 15 C24.55330864 14.05308339 22.32707972 13.05760459 20 11.875 C18.66637696 11.22318498 17.33172445 10.57347243 15.99609375 9.92578125 C14.99618408 9.43779053 14.99618408 9.43779053 13.97607422 8.93994141 C9.40340844 6.76490271 4.69328587 4.89654196 0 3 C0 2.01 0 1.02 0 0 Z " fill="#E29F52" transform="translate(143,60)"/>
<path d="M0 0 C1.6451094 0.00025112 3.29022405 0.00581355 4.93530273 0.01586914 C6.083797 0.01737976 6.083797 0.01737976 7.25549316 0.0189209 C10.12664275 0.02416876 12.99777106 0.03812992 15.86889648 0.05102539 C22.28327148 0.07165039 28.69764648 0.09227539 35.30639648 0.11352539 C35.30639648 25.52352539 35.30639648 50.93352539 35.30639648 77.11352539 C30.02639648 77.11352539 24.74639648 77.11352539 19.30639648 77.11352539 C19.30639648 56.32352539 19.30639648 35.53352539 19.30639648 14.11352539 C11.71639648 14.11352539 4.12639648 14.11352539 -3.69360352 14.11352539 C-4.6865398 11.13471654 -4.82766762 9.09751341 -4.81860352 5.98852539 C-4.82118164 5.09907227 -4.82375977 4.20961914 -4.82641602 3.29321289 C-4.59862775 -0.4451945 -3.92332339 0.12058599 0 0 Z " fill="#050505" transform="translate(368.693603515625,304.886474609375)"/>
<path d="M0 0 C3.87379903 0.63159287 7.11705651 1.79683534 10.69140625 3.40625 C11.79154053 3.89859131 12.8916748 4.39093262 14.02514648 4.89819336 C15.19247314 5.42678955 16.3597998 5.95538574 17.5625 6.5 C18.76527588 7.03955322 19.96805176 7.57910645 21.20727539 8.13500977 C24.80777589 9.75023367 28.40416214 11.37442176 32 13 C35.64560287 14.64634437 39.29141481 16.29222408 42.9375 17.9375 C44.14176636 18.48168579 44.14176636 18.48168579 45.37036133 19.03686523 C51.53200446 21.81247909 57.73456676 24.46581054 64 27 C64.99 25.515 64.99 25.515 66 24 C66 26.64 66 29.28 66 32 C65.34 32 64.68 32 64 32 C64 37.28 64 42.56 64 48 C63.34 48 62.68 48 62 48 C61.67 48.99 61.34 49.98 61 51 C61 49.02 61 47.04 61 45 C56.75197466 43.0789423 52.50162507 41.16307512 48.25 39.25 C47.60717072 38.96054504 46.96434143 38.67109009 46.30203247 38.37286377 C38.88951337 35.03852215 31.46255039 31.74590045 23.98046875 28.5703125 C23.34172821 28.29892456 22.70298767 28.02753662 22.04489136 27.7479248 C18.97966377 26.44746267 15.9113865 25.15527444 12.83886719 23.87207031 C11.73575195 23.40639648 10.63263672 22.94072266 9.49609375 22.4609375 C8.04481079 21.85451416 8.04481079 21.85451416 6.56420898 21.23583984 C4.04158735 20.02004333 2.03189761 18.93037651 0 17 C-0.45410156 15.09887695 -0.45410156 15.09887695 -0.390625 12.98828125 C-0.37773437 12.23095703 -0.36484375 11.47363281 -0.3515625 10.69335938 C-0.31804687 9.90767578 -0.28453125 9.12199219 -0.25 8.3125 C-0.23195312 7.51521484 -0.21390625 6.71792969 -0.1953125 5.89648438 C-0.14822247 3.93047551 -0.07647899 1.96508506 0 0 Z " fill="#F49425" transform="translate(135,78)"/>
<path d="M0 0 C4.95 0 9.9 0 15 0 C15 24.75 15 49.5 15 75 C10.05 75 5.1 75 0 75 C0 50.25 0 25.5 0 0 Z " fill="#000000" transform="translate(343,306)"/>
<path d="M0 0 C28.92793293 -0.02332523 57.85586446 -0.04097732 86.78380489 -0.05181217 C89.45377033 -0.0528387 92.12373575 -0.05387339 94.79370117 -0.05493164 C95.45735534 -0.05519395 96.12100951 -0.05545626 96.80477441 -0.05572652 C107.56440169 -0.06008323 118.32402366 -0.06797078 129.08364778 -0.0771528 C140.11596341 -0.08648932 151.14827609 -0.09198071 162.18059546 -0.09408849 C168.38066064 -0.09539602 174.58071375 -0.09848448 180.78077507 -0.10573006 C186.60911186 -0.11248644 192.43743153 -0.11461774 198.26577187 -0.11310768 C200.41166654 -0.11338418 202.55756176 -0.11539156 204.70345306 -0.11920547 C207.61957918 -0.12413676 210.53563952 -0.12300039 213.45176697 -0.12025452 C214.31264465 -0.12316736 215.17352233 -0.1260802 216.06048721 -0.12908131 C221.88587879 -0.11412121 221.88587879 -0.11412121 223 1 C223.09769053 3.4411002 223.12996385 5.85387292 223.12025452 8.29542542 C223.12153615 9.45439415 223.12153615 9.45439415 223.12284368 10.63677639 C223.12450082 13.24558554 223.11897331 15.85433146 223.11352539 18.46313477 C223.11324354 20.32532754 223.1134012 22.18752043 223.1139679 24.04971313 C223.11425597 29.12181586 223.10835771 34.19389515 223.10139394 39.2659924 C223.09516197 44.56046001 223.09455673 49.8549281 223.09336853 55.1493988 C223.09025475 65.18271424 223.08204073 75.21601885 223.07201904 85.24932951 C223.06085935 96.66872285 223.05534782 108.08811669 223.05032361 119.50751412 C223.03985815 143.00501543 223.02225781 166.50250711 223 190 C222.67 190 222.34 190 222 190 C221.67 127.96 221.34 65.92 221 2 C150.71 2 80.42 2 8 2 C11.41321235 5.41321235 13.06340351 5.72605419 17.6875 6.6875 C18.86699219 6.93886719 20.04648438 7.19023438 21.26171875 7.44921875 C22.16535156 7.63097656 23.06898438 7.81273438 24 8 C24 8.99 24 9.98 24 11 C24.99 11 25.98 11 27 11 C27 11.66 27 12.32 27 13 C28.32 13.33 29.64 13.66 31 14 C29.4375 14.6953125 29.4375 14.6953125 27 15 C24.55330864 14.05308339 22.32707972 13.05760459 20 11.875 C18.66637696 11.22318498 17.33172445 10.57347243 15.99609375 9.92578125 C14.99618408 9.43779053 14.99618408 9.43779053 13.97607422 8.93994141 C9.40340844 6.76490271 4.69328587 4.89654196 0 3 C0 2.01 0 1.02 0 0 Z " fill="#EEB873" transform="translate(143,60)"/>
<path d="M0 0 C0.33 0 0.66 0 1 0 C1 6.93 1 13.86 1 21 C4.95860098 20.8596876 8.91678516 20.71301101 12.875 20.5625 C14.00292969 20.52318359 15.13085938 20.48386719 16.29296875 20.44335938 C17.36933594 20.40146484 18.44570312 20.35957031 19.5546875 20.31640625 C20.54968262 20.27974854 21.54467773 20.24309082 22.56982422 20.20532227 C25.00779501 20.15040468 25.00779501 20.15040468 27 19 C27.495 19.99 27.495 19.99 28 21 C43.84 21.495 43.84 21.495 60 22 C60.495 20.515 60.495 20.515 61 19 C61 19.66 61 20.32 61 21 C75.19 21 89.38 21 104 21 C104.33 20.34 104.66 19.68 105 19 C105 19.99 105 20.98 105 22 C110.28 22 115.56 22 121 22 C121.33 20.68 121.66 19.36 122 18 C122.33 18.66 122.66 19.32 123 20 C124.04800781 20 125.09601563 20 126.17578125 20 C141 20 141 20 143.04296875 20.9609375 C147.40786132 22.49470424 151.7162812 22.46908586 156.3125 22.625 C157.24384766 22.66367187 158.17519531 22.70234375 159.13476562 22.7421875 C161.42298407 22.83606313 163.71120295 22.92174509 166 23 C166 23.33 166 23.66 166 24 C146.64932892 25.12413215 127.33003474 25.13356905 107.95542645 25.10139394 C103.4765471 25.09505043 98.99766672 25.09454806 94.51878357 25.09336853 C86.07637658 25.0902871 77.63398287 25.08211768 69.19158167 25.07201904 C59.56366379 25.06075762 49.9357452 25.05532244 40.30782235 25.05032361 C20.53854088 25.03993159 0.76927128 25.02239535 -19 25 C-19.33 23.68 -19.66 22.36 -20 21 C-13.4 21.33 -6.8 21.66 0 22 C0 14.74 0 7.48 0 0 Z " fill="#5990B1" transform="translate(86,360)"/>
<path d="M0 0 C1.34262065 0.29369827 2.67696283 0.6278958 4 1 C4.66 0.67 5.32 0.34 6 0 C8.33171678 0.54897917 10.64259915 1.18818757 12.9375 1.875 C14.18402344 2.24367188 15.43054688 2.61234375 16.71484375 2.9921875 C18.81748186 3.63722987 20.91350773 4.30450258 23 5 C23.66 4.01 24.32 3.02 25 2 C25 4.64 25 7.28 25 10 C24.34 10 23.68 10 23 10 C23 15.28 23 20.56 23 26 C22.34 26 21.68 26 21 26 C20.67 26.99 20.34 27.98 20 29 C20 27.02 20 25.04 20 23 C15.05 20.69 10.1 18.38 5 16 C5 15.01 5 14.02 5 13 C3.02 12.34 1.04 11.68 -1 11 C-1 10.01 -1 9.02 -1 8 C-1.66 7.01 -2.32 6.02 -3 5 C-2 2 -2 2 0 0 Z " fill="#F69321" transform="translate(176,100)"/>
<path d="M0 0 C7.92 0 15.84 0 24 0 C24.020625 2.619375 24.04125 5.23875 24.0625 7.9375 C24.071604 8.7637085 24.08070801 9.58991699 24.09008789 10.44116211 C24.09723945 12.29433759 24.0502852 14.14749308 24 16 C23 17 23 17 19.18359375 17.09765625 C17.60153318 17.09098089 16.01948841 17.07901875 14.4375 17.0625 C13.63119141 17.05798828 12.82488281 17.05347656 11.99414062 17.04882812 C9.99606244 17.03700518 7.99802217 17.01906914 6 17 C4.79715599 14.92426919 3.61294299 12.84116905 2.4375 10.75 C1.92413086 9.87021484 1.92413086 9.87021484 1.40039062 8.97265625 C-0.68505128 5.22307384 -1.08765593 4.3506237 0 0 Z " fill="#262525" transform="translate(302,336)"/>
<path d="M0 0 C0 0.66 0 1.32 0 2 C0.66 2 1.32 2 2 2 C3.5078125 3.6796875 3.5078125 3.6796875 5.125 5.875 C5.66382812 6.59429687 6.20265625 7.31359375 6.7578125 8.0546875 C8 10 8 10 8 12 C8.66 12 9.32 12 10 12 C10.99 13.485 10.99 13.485 12 15 C12.66 15 13.32 15 14 15 C14.66 14.01 15.32 13.02 16 12 C15.47731534 14.76276177 14.89130413 17.3260876 14 20 C11.43788925 20.19569589 8.87567609 20.38180612 6.3125 20.5625 C5.59126953 20.61857422 4.87003906 20.67464844 4.12695312 20.73242188 C-3.50004008 21.25481867 -3.50004008 21.25481867 -7 20 C-9.0546875 18.07421875 -9.0546875 18.07421875 -10.875 15.6875 C-11.49117188 14.90761719 -12.10734375 14.12773437 -12.7421875 13.32421875 C-14 11 -14 11 -14.03515625 8.94140625 C-12.49216774 6.04757497 -10.33919893 4.93985058 -7.5625 3.25 C-6.57378906 2.63640625 -5.58507812 2.0228125 -4.56640625 1.390625 C-2 0 -2 0 0 0 Z " fill="#181818" transform="translate(117,359)"/>
<path d="M0 0 C7.59 0 15.18 0 23 0 C23 20.79 23 41.58 23 63 C30.92 62.505 30.92 62.505 39 62 C43.6734382 61.93704959 48.32846484 61.90210958 53 61.9375 C54.75183594 61.94426758 54.75183594 61.94426758 56.5390625 61.95117188 C59.35943413 61.96273078 62.17968558 61.97901552 65 62 C65 62.99 65 63.98 65 65 C62.25382482 66.37308759 60.05801289 66.12720467 56.98413086 66.12939453 C55.71778305 66.13254669 54.45143524 66.13569885 53.14671326 66.13894653 C51.75275641 66.13715382 50.35879987 66.13510214 48.96484375 66.1328125 C47.52869144 66.13348684 46.09253925 66.13445796 44.65638733 66.13571167 C41.6324862 66.13718958 38.60861451 66.13503584 35.5847168 66.13037109 C31.75880213 66.12474962 27.93295818 66.12798888 24.10704613 66.13382339 C-6.18146124 66.1728059 -6.18146124 66.1728059 -20 65 C-20 64.67 -20 64.34 -20 64 C-15.38 64 -10.76 64 -6 64 C-6 63.34 -6 62.68 -6 62 C3.24 62 12.48 62 22 62 C22 41.87 22 21.74 22 1 C14.74 1 7.48 1 0 1 C0 0.67 0 0.34 0 0 Z " fill="#899AA5" transform="translate(365,319)"/>
<path d="M0 0 C6.93 0 13.86 0 21 0 C21 4.95 21 9.9 21 15 C16.05 15 11.1 15 6 15 C0 3.375 0 3.375 0 0 Z " fill="#1F1F1F" transform="translate(406,305)"/>
<path d="M0 0 C69.63 0 139.26 0 211 0 C211 0.33 211 0.66 211 1 C142.69 1 74.38 1 4 1 C4.33 1.99 4.66 2.98 5 4 C2.525 3.01 2.525 3.01 0 2 C0 1.34 0 0.68 0 0 Z " fill="#ED952D" transform="translate(151,62)"/>
<path d="M0 0 C7.87599177 0 7.87599177 0 10.97265625 1.42578125 C11.64490234 1.72806641 12.31714844 2.03035156 13.00976562 2.34179688 C13.68716797 2.66212891 14.36457031 2.98246094 15.0625 3.3125 C15.74376953 3.62123047 16.42503906 3.92996094 17.12695312 4.24804688 C21.13049314 6.07483026 25.07488762 8.00988842 29 10 C25.42355152 11.2380014 22.66305234 10.74926071 19 10 C19 9.34 19 8.68 19 8 C15.7 8.33 12.4 8.66 9 9 C9 8.34 9 7.68 9 7 C9.66 7 10.32 7 11 7 C10.505 6.54625 10.01 6.0925 9.5 5.625 C8 4 8 4 8 2 C5.69 1.67 3.38 1.34 1 1 C1 46.54 1 92.08 1 139 C0.67 139 0.34 139 0 139 C0 93.13 0 47.26 0 0 Z " fill="#E69339" transform="translate(136,117)"/>
<path d="M0 0 C5.08613544 -0.14956966 10.17096042 -0.25778195 15.25878906 -0.32958984 C16.98525319 -0.35955647 18.71156778 -0.40034571 20.4375 -0.45263672 C37.68587024 -0.9617032 37.68587024 -0.9617032 45.38720703 4.40771484 C47 6 47 6 48 9 C47.34 9 46.68 9 46 9 C46 8.34 46 7.68 46 7 C44.68 7.33 43.36 7.66 42 8 C41.505 6.515 41.505 6.515 41 5 C37.48809191 3.77030122 37.48809191 3.77030122 34 3 C34 2.34 34 1.68 34 1 C23.44 1 12.88 1 2 1 C2 4.63 2 8.26 2 12 C1.34 13.65 0.68 15.3 0 17 C-0.40331033 19.05345588 -0.7564719 21.11730989 -1.0625 23.1875 C-1.89982425 28.79964851 -1.89982425 28.79964851 -3 31 C-3.27913597 33.5919769 -3.44571026 36.18425634 -3.62109375 38.78515625 C-4.10663576 42.90475498 -5.10014786 46.95066538 -6 51 C4.23 51 14.46 51 25 51 C25 51.33 25 51.66 25 52 C14.11 52 3.22 52 -8 52 C-7.38184801 45.20032814 -6.72901355 38.58445062 -5.625 31.875 C-5.49561035 31.07239746 -5.3662207 30.26979492 -5.23291016 29.44287109 C-3.63350189 19.60525618 -1.97005138 9.77070114 0 0 Z " fill="#DA8E3A" transform="translate(233,112)"/>
<path d="M0 0 C12.64122137 -0.27480916 12.64122137 -0.27480916 16 2 C18.59512969 6.07806094 19.61485633 9.18362544 19 14 C17.65657213 17.11109611 16.79660877 18.59892961 13.75 20.1328125 C9.16267401 21.57938405 4.7853048 21.11530855 0 21 C0 14.07 0 7.14 0 0 Z M3 3 C3 7.95 3 12.9 3 18 C4.8871875 18.0309375 4.8871875 18.0309375 6.8125 18.0625 C7.52019531 18.07410156 8.22789062 18.08570313 8.95703125 18.09765625 C11.20305461 18.08263217 11.20305461 18.08263217 14 17 C16.04777135 14.33789725 15.99447204 12.84245308 15.875 9.4375 C15.26878608 6.05816685 15.26878608 6.05816685 13.4375 4.0625 C9.8556202 2.50116778 6.89006898 2.80549655 3 3 Z " fill="#454545" transform="translate(120,413)"/>
<path d="M0 0 C11.53245501 -0.27458226 11.53245501 -0.27458226 15 2 C16.5121867 5.02437339 16.17263369 7.66241534 16 11 C15 13.4375 15 13.4375 14 15 C14.99 16.485 14.99 16.485 16 18 C16 18.99 16 19.98 16 21 C15.01 21 14.02 21 13 21 C12.401875 20.030625 11.80375 19.06125 11.1875 18.0625 C9.27963699 14.70660152 9.27963699 14.70660152 5.75 14.125 C4.38875 14.063125 4.38875 14.063125 3 14 C3 16.31 3 18.62 3 21 C2.01 21 1.02 21 0 21 C0 14.07 0 7.14 0 0 Z M3 3 C3 5.97 3 8.94 3 12 C8.32170494 12.29562367 8.32170494 12.29562367 13 10 C13.41666667 7.5 13.41666667 7.5 13 5 C11.23863645 2.81668311 11.23863645 2.81668311 9.0546875 2.8046875 C6.02734375 2.90234375 6.02734375 2.90234375 3 3 Z " fill="#585858" transform="translate(295,413)"/>
<path d="M0 0 C4.01908331 0.64192406 7.37286356 1.91261209 11.078125 3.58203125 C12.82029297 4.36223633 12.82029297 4.36223633 14.59765625 5.15820312 C15.81516768 5.70949517 17.03261523 6.26092831 18.25 6.8125 C20.03470703 7.61397461 20.03470703 7.61397461 21.85546875 8.43164062 C24.17341492 9.47279545 26.49050427 10.51586042 28.80664062 11.56103516 C32.86432334 13.38947414 36.93100652 15.19689452 41 17 C41 17.33 41 17.66 41 18 C38.03 17.67 35.06 17.34 32 17 C31.67 16.01 31.34 15.02 31 14 C30.27941406 14.03738281 29.55882812 14.07476562 28.81640625 14.11328125 C25.78203471 13.99123302 23.73398576 13.34153663 20.9375 12.1875 C19.68259766 11.68283203 19.68259766 11.68283203 18.40234375 11.16796875 C16 10 16 10 14.01953125 8.46875 C11.65807699 6.75132872 9.55588566 6.08781051 6.75 5.3125 C4.39875 4.6628125 4.39875 4.6628125 2 4 C2 7.96 2 11.92 2 16 C4.10375 16.6496875 4.10375 16.6496875 6.25 17.3125 C9.65039306 18.43703944 12.31581964 19.54922663 15 22 C12.29840881 23.04537095 11.21584123 23.08156212 8.45703125 22.0390625 C7.58433594 21.57242188 6.71164063 21.10578125 5.8125 20.625 C4.93207031 20.16351563 4.05164063 19.70203125 3.14453125 19.2265625 C1 18 1 18 0 17 C-0.07325168 14.13732433 -0.09238205 11.299281 -0.0625 8.4375 C-0.05798828 7.63119141 -0.05347656 6.82488281 -0.04882812 5.99414062 C-0.03700518 3.99606244 -0.01906914 1.99802217 0 0 Z " fill="#E6A251" transform="translate(135,78)"/>
<path d="M0 0 C10.36261682 -0.37009346 10.36261682 -0.37009346 13.30078125 1.3359375 C15.79847001 3.78194994 15.93226647 5.54559002 16 9 C14.5625 12.375 14.5625 12.375 13 15 C13.495 15.61875 13.99 16.2375 14.5 16.875 C16 19 16 19 16 21 C13.20171644 20.61402985 12.1794116 20.19863427 10.25 18.0625 C9 16 9 16 9 14 C7.02 14 5.04 14 3 14 C2.67 16.31 2.34 18.62 2 21 C1.34 21 0.68 21 0 21 C0 14.07 0 7.14 0 0 Z M3 3 C3 5.97 3 8.94 3 12 C7.455 11.505 7.455 11.505 12 11 C12.76956136 8.65466049 12.76956136 8.65466049 13 6 C12.10938785 4.02421261 12.10938785 4.02421261 10 3 C6.37464024 2.7496423 6.37464024 2.7496423 3 3 Z " fill="#4F4F4F" transform="translate(219,413)"/>
<path d="M0 0 C4.95 0 9.9 0 15 0 C14.67 0.99 14.34 1.98 14 3 C10.37 3 6.74 3 3 3 C3 4.98 3 6.96 3 9 C6.3 9 9.6 9 13 9 C13 9.99 13 10.98 13 12 C9.7 12 6.4 12 3 12 C3 13.98 3 15.96 3 18 C6.96 18 10.92 18 15 18 C15 18.99 15 19.98 15 21 C10.05 21 5.1 21 0 21 C0 14.07 0 7.14 0 0 Z " fill="#717171" transform="translate(359,413)"/>
<path d="M0 0 C4.62 0 9.24 0 14 0 C14 0.99 14 1.98 14 3 C10.37 3 6.74 3 3 3 C3 4.98 3 6.96 3 9 C6.3 9 9.6 9 13 9 C13 9.99 13 10.98 13 12 C9.7 12 6.4 12 3 12 C3 13.98 3 15.96 3 18 C6.96 18 10.92 18 15 18 C15 18.99 15 19.98 15 21 C10.05 21 5.1 21 0 21 C0 14.07 0 7.14 0 0 Z " fill="#9F9FA0" transform="translate(142,413)"/>
<path d="M0 0 C4.62 0 9.24 0 14 0 C14 0.99 14 1.98 14 3 C10.37 3 6.74 3 3 3 C3 4.98 3 6.96 3 9 C6.3 9 9.6 9 13 9 C12.67 9.99 12.34 10.98 12 12 C9.03 12 6.06 12 3 12 C3 13.98 3 15.96 3 18 C6.63 18 10.26 18 14 18 C14.33 18.99 14.66 19.98 15 21 C10.05 21 5.1 21 0 21 C0 14.07 0 7.14 0 0 Z " fill="#5F5F5F" transform="translate(277,413)"/>
<path d="M0 0 C2.45098556 0.39532025 4.63904279 1.21301426 7 2 C7 2.66 7 3.32 7 4 C11.14093698 4.20970559 11.14093698 4.20970559 15 3 C17.24733871 2.93701004 19.49669177 2.9425269 21.74462891 2.97827148 C22.43742447 2.98787903 23.13022003 2.99748657 23.8440094 3.00738525 C26.13829582 3.04041653 28.43239426 3.08073296 30.7265625 3.12109375 C32.3155348 3.14539084 33.9045141 3.16923461 35.49349976 3.19264221 C39.67915806 3.25552407 43.86469284 3.32457905 48.05023193 3.39489746 C52.31988898 3.46554391 56.58963373 3.53038294 60.859375 3.59570312 C69.23968042 3.72476831 77.61986429 3.86035173 86 4 C86 4.33 86 4.66 86 5 C63.56 5 41.12 5 18 5 C17.67 9.62 17.34 14.24 17 19 C16.34 19 15.68 19 15 19 C15 15.7 15 12.4 15 9 C13.10435574 8.20788071 11.20847629 7.41632424 9.3125 6.625 C8.25675781 6.18414062 7.20101562 5.74328125 6.11328125 5.2890625 C3.41643343 4.17242538 0.71283736 3.07708199 -2 2 C-1.34 1.34 -0.68 0.68 0 0 Z " fill="#DC9849" transform="translate(186,79)"/>
<path d="M0 0 C4.62 0 9.24 0 14 0 C14 0.99 14 1.98 14 3 C10.04 3 6.08 3 2 3 C2 4.98 2 6.96 2 9 C5.63 9 9.26 9 13 9 C13 9.99 13 10.98 13 12 C9.37 12 5.74 12 2 12 C2 13.98 2 15.96 2 18 C5.96 18 9.92 18 14 18 C14 18.99 14 19.98 14 21 C9.38 21 4.76 21 0 21 C0 14.07 0 7.14 0 0 Z " fill="#404040" transform="translate(201,413)"/>
<path d="M0 0 C1.8871875 0.061875 1.8871875 0.061875 3.8125 0.125 C4.4725 1.445 5.1325 2.765 5.8125 4.125 C2.8425 4.125 -0.1275 4.125 -3.1875 4.125 C-3.5175 5.445 -3.8475 6.765 -4.1875 8.125 C-2.3003125 8.558125 -2.3003125 8.558125 -0.375 9 C2.6664399 9.69803539 4.11919878 10.32946585 6.8125 12.125 C7.06910094 15.20421132 7.20681504 17.33636993 5.8125 20.125 C1.33995503 21.61584832 -2.71495503 21.61584832 -7.1875 20.125 C-7.5175 19.135 -7.8475 18.145 -8.1875 17.125 C-7.5275 16.795 -6.8675 16.465 -6.1875 16.125 C-5.218125 16.455 -4.24875 16.785 -3.25 17.125 C-0.19587152 18.45839097 -0.19587152 18.45839097 2.8125 17.125 C2.4825 15.805 2.1525 14.485 1.8125 13.125 C0.69875 12.83625 -0.415 12.5475 -1.5625 12.25 C-5.1875 11.125 -5.1875 11.125 -7.1875 9.125 C-7.5 5.625 -7.5 5.625 -7.1875 2.125 C-4.09861478 0.06574319 -3.47814073 -0.1140374 0 0 Z " fill="#5C5C5C" transform="translate(267.1875,412.875)"/>
<path d="M0 0 C5.75 1.875 5.75 1.875 8 3 C9.5195764 3.15123831 11.04472502 3.24881693 12.5703125 3.31640625 C13.91416016 3.37924805 13.91416016 3.37924805 15.28515625 3.44335938 C16.22230469 3.48267578 17.15945312 3.52199219 18.125 3.5625 C19.54232422 3.62727539 19.54232422 3.62727539 20.98828125 3.69335938 C23.32537092 3.79959072 25.6625683 3.90163176 28 4 C28 4.33 28 4.66 28 5 C7.5790626 6.04494726 -12.59179033 6.38026539 -33 5 C-33 4.67 -33 4.34 -33 4 C-27.39 4 -21.78 4 -16 4 C-15.67 3.01 -15.34 2.02 -15 1 C-10.05 1 -5.1 1 0 1 C0 0.67 0 0.34 0 0 Z " fill="#85B1CF" transform="translate(224,379)"/>
<path d="M0 0 C0.99 0.66 1.98 1.32 3 2 C3 2.99 3 3.98 3 5 C2.484375 4.835 1.96875 4.67 1.4375 4.5 C-2.46734814 3.69900551 -6.33975102 3.08954088 -9.9375 5.0625 C-11.57850647 8.05492356 -11.23895351 10.6546508 -11 14 C-10.67 14.99 -10.34 15.98 -10 17 C-8.58344207 17.0272415 -7.16672955 17.04650467 -5.75 17.0625 C-4.96109375 17.07410156 -4.1721875 17.08570313 -3.359375 17.09765625 C-1.09308998 17.00385306 0.8288895 16.63241063 3 16 C2.6875 17.9375 2.6875 17.9375 2 20 C-2.47254497 21.49084832 -6.52745503 21.49084832 -11 20 C-11 19.34 -11 18.68 -11 18 C-11.66 18 -12.32 18 -13 18 C-15.35039116 14.32751381 -15.51756902 11.28842905 -15 7 C-11.2465378 0.74888079 -7.13216709 -0.83326309 0 0 Z " fill="#3D3D3D" transform="translate(353,413)"/>
<path d="M0 0 C3.10332734 1.04984904 3.90118884 1.80538022 5.4140625 4.78515625 C5.81367188 5.86667969 6.21328125 6.94820313 6.625 8.0625 C7.88201059 12.32993312 7.88201059 12.32993312 11 15 C11.11214844 14.28457031 11.22429687 13.56914062 11.33984375 12.83203125 C12.04456005 9.80884002 13.13287798 7.43677312 14.5625 4.6875 C15.01753906 3.80449219 15.47257813 2.92148437 15.94140625 2.01171875 C16.29074219 1.34785156 16.64007813 0.68398438 17 0 C17.99 0.33 18.98 0.66 20 1 C19.67386719 1.70125 19.34773438 2.4025 19.01171875 3.125 C16.95877512 7.58212835 14.9648938 11.9579634 13.4375 16.625 C12.7259375 18.295625 12.7259375 18.295625 12 20 C9.91015625 20.7109375 9.91015625 20.7109375 8 21 C6.84475582 18.62918558 5.70074792 16.25396043 4.5625 13.875 C4.07426758 12.87726563 4.07426758 12.87726563 3.57617188 11.859375 C1.69415567 7.90132029 0.48773294 4.41020487 0 0 Z " fill="#6A6A6A" transform="translate(180,413)"/>
<path d="M0 0 C2.64699091 2.64699091 3.05235704 4.96577065 4.125 8.5625 C4.55714367 9.99653153 4.99085126 11.43009233 5.42578125 12.86328125 C5.66893066 13.66588379 5.91208008 14.46848633 6.16259766 15.29541016 C7.113709 18.36725022 8.10654097 21.42384798 9.10546875 24.48046875 C9.46946777 25.59800537 9.8334668 26.71554199 10.20849609 27.86694336 C10.93791293 30.10213333 11.67124122 32.33605108 12.40869141 34.56860352 C12.74433105 35.60299561 13.0799707 36.6373877 13.42578125 37.703125 C13.72911377 38.62770508 14.03244629 39.55228516 14.3449707 40.50488281 C15 43 15 43 15 47 C14.21625 46.814375 13.4325 46.62875 12.625 46.4375 C10.02910225 45.74037734 10.02910225 45.74037734 8 47 C8.33 46.01 8.66 45.02 9 44 C9.22084734 40.17197946 9.05710324 37.19986134 8 33.5 C6.95268586 29.8344005 6.84526804 26.79093296 7 23 C6.34 23 5.68 23 5 23 C4.71125 21.948125 4.4225 20.89625 4.125 19.8125 C3.14173215 16.19379451 3.14173215 16.19379451 1.96875 13.625 C0.90485245 10.74218084 0.59610828 8.24616455 0.375 5.1875 C0.30023438 4.21167969 0.22546875 3.23585937 0.1484375 2.23046875 C0.09945312 1.49441406 0.05046875 0.75835937 0 0 Z " fill="#CD8538" transform="translate(250,201)"/>
<path d="M0 0 C0.33 0 0.66 0 1 0 C1 2.64 1 5.28 1 8 C0.34 8 -0.32 8 -1 8 C-1 13.28 -1 18.56 -1 24 C-1.66 24 -2.32 24 -3 24 C-3.33 24.99 -3.66 25.98 -4 27 C-4 25.02 -4 23.04 -4 21 C-8.95 18.69 -13.9 16.38 -19 14 C-19 13.67 -19 13.34 -19 13 C-13.17728663 12.40279863 -9.0790596 14.471757 -4 17 C-4 14.36 -4 11.72 -4 9 C-5.32 8.67 -6.64 8.34 -8 8 C-7.34 6.35 -6.68 4.7 -6 3 C-6.66 3 -7.32 3 -8 3 C-8 2.34 -8 1.68 -8 1 C-5.69 1.66 -3.38 2.32 -1 3 C-0.67 2.01 -0.34 1.02 0 0 Z " fill="#EE9B39" transform="translate(200,102)"/>
<path d="M0 0 C0.66 0 1.32 0 2 0 C7.59437008 7.23699947 7.77773531 14.58222757 7.65185547 23.33862305 C7.62499685 25.56276056 7.65171392 27.78187348 7.68359375 30.00585938 C7.71207799 42.86829818 7.71207799 42.86829818 3.16943359 48.43725586 C1.80787966 50.25673535 1.51008407 51.80731188 1 54 C-0.2830709 55.38176866 -1.63113049 56.70317626 -3 58 C-4.75496244 60.08554839 -6.49508 62.181473 -8.21875 64.29296875 C-10.16382494 66.1569989 -11.36999182 66.61357336 -14 67 C-13.34 66.401875 -12.68 65.80375 -12 65.1875 C-2.70555146 55.76102805 4.66707439 43.53104782 5 30 C5.03867187 28.90558594 5.07734375 27.81117188 5.1171875 26.68359375 C5.30709616 16.73449005 3.61665105 9.20602086 0 0 Z " fill="#D78E43" transform="translate(312,106)"/>
<path d="M0 0 C0.66 0 1.32 0 2 0 C3.00732399 1.93370231 4.00563288 3.87210306 5 5.8125 C5.8353125 7.43091797 5.8353125 7.43091797 6.6875 9.08203125 C8 12 8 12 8 15 C11.83569902 13.08215049 12.84928309 7.70756921 14.46484375 3.90625 C16 1 16 1 19 0 C18.45318976 5.00600922 16.75859667 8.97181067 14.4375 13.375 C14.10814453 14.01566406 13.77878906 14.65632813 13.43945312 15.31640625 C12.63360518 16.88138632 11.81781507 18.44124021 11 20 C9.68 20 8.36 20 7 20 C5.82421696 17.42047597 4.659209 14.83696062 3.5 12.25 C2.99919922 11.15558594 2.99919922 11.15558594 2.48828125 10.0390625 C2.17246094 9.33007812 1.85664063 8.62109375 1.53125 7.890625 C1.23798828 7.24125977 0.94472656 6.59189453 0.64257812 5.92285156 C0 4 0 4 0 0 Z " fill="#666666" transform="translate(312,413)"/>
<path d="M0 0 C1.084021 0.00523682 2.16804199 0.01047363 3.28491211 0.01586914 C4.45473633 0.0190918 5.62456055 0.02231445 6.82983398 0.02563477 C8.0615332 0.03401367 9.29323242 0.04239258 10.56225586 0.05102539 C12.41560547 0.05779297 12.41560547 0.05779297 14.30639648 0.06469727 C17.37089703 0.07652931 20.43530307 0.09301366 23.49975586 0.11352539 C23.49975586 1.10352539 23.49975586 2.09352539 23.49975586 3.11352539 C21.20995259 4.25842702 19.92311917 4.24250299 17.37866211 4.24633789 C16.11155396 4.24923828 16.11155396 4.24923828 14.81884766 4.25219727 C13.90917236 4.24768555 12.99949707 4.24317383 12.06225586 4.23852539 C11.13388916 4.2365918 10.20552246 4.2346582 9.24902344 4.23266602 C-0.01945717 4.17613653 -9.25249422 3.70538139 -18.50024414 3.11352539 C-18.50024414 2.78352539 -18.50024414 2.45352539 -18.50024414 2.11352539 C-17.4290332 2.05293945 -16.35782227 1.99235352 -15.25415039 1.92993164 C-13.85700023 1.84554002 -12.45986557 1.76089133 -11.06274414 1.67602539 C-10.00216797 1.61705078 -10.00216797 1.61705078 -8.92016602 1.55688477 C-5.58534969 1.349456 -3.06346719 0.13909894 0 0 Z " fill="#7DAECA" transform="translate(406.500244140625,380.886474609375)"/>
<path d="M0 0 C9.57 0 19.14 0 29 0 C29.495 2.475 29.495 2.475 30 5 C29.34 5.33 28.68 5.66 28 6 C27.67 4.68 27.34 3.36 27 2 C18.75 2 10.5 2 2 2 C2 4.97 2 7.94 2 11 C1.39816251 13.02045442 0.72693904 15.02111039 0 17 C-0.74100931 20.31952146 -1.37881473 23.6561729 -2 27 C-2.66 27 -3.32 27 -4 27 C-3.42766088 21.84894791 -2.61147719 16.8475875 -1.5 11.78515625 C-0.80026086 7.88739059 -0.43731738 3.93585639 0 0 Z " fill="#D18B41" transform="translate(219,191)"/>
<path d="M0 0 C0.33 0 0.66 0 1 0 C1 7.26 1 14.52 1 22 C2.65 22 4.3 22 6 22 C6 22.33 6 22.66 6 23 C12.93 23.33 19.86 23.66 27 24 C27 24.33 27 24.66 27 25 C11.82 25 -3.36 25 -19 25 C-19.33 23.68 -19.66 22.36 -20 21 C-13.4 21.33 -6.8 21.66 0 22 C0 14.74 0 7.48 0 0 Z " fill="#B8CEDC" transform="translate(86,360)"/>
<path d="M0 0 C0.66 0 1.32 0 2 0 C2.33 1.32 2.66 2.64 3 4 C13.56 4 24.12 4 35 4 C35 4.33 35 4.66 35 5 C27.24046088 5.0760007 19.48101758 5.12857918 11.72119141 5.16479492 C9.08085544 5.1798909 6.44054458 5.20036954 3.80029297 5.22631836 C0.00742397 5.26266491 -3.78511377 5.27971845 -7.578125 5.29296875 C-8.76053772 5.30845261 -9.94295044 5.32393646 -11.16119385 5.33988953 C-12.26203308 5.34011612 -13.36287231 5.34034271 -14.49707031 5.34057617 C-15.94935028 5.35056892 -15.94935028 5.35056892 -17.43096924 5.36076355 C-20 5 -20 5 -24 2 C-16.08 1.67 -8.16 1.34 0 1 C0 0.67 0 0.34 0 0 Z " fill="#69A0C2" transform="translate(111,379)"/>
<path d="M0 0 C9.24 0 18.48 0 28 0 C28 0.33 28 0.66 28 1 C25.69 1 23.38 1 21 1 C21 1.66 21 2.32 21 3 C22.32 3.33 23.64 3.66 25 4 C11.95545355 4.1183055 -0.98818941 3.96639442 -14 3 C-14 2.67 -14 2.34 -14 2 C-9.38 2 -4.76 2 0 2 C0 1.34 0 0.68 0 0 Z " fill="#88B5D1" transform="translate(359,381)"/>
<path d="M0 0 C0 0.66 0 1.32 0 2 C-0.98742187 2.06058594 -1.97484375 2.12117188 -2.9921875 2.18359375 C-4.27351563 2.26738281 -5.55484375 2.35117187 -6.875 2.4375 C-8.15117187 2.51871094 -9.42734375 2.59992188 -10.7421875 2.68359375 C-13.88300152 2.79206027 -13.88300152 2.79206027 -16 4 C-17.70526583 3.9209025 -19.40736211 3.7726471 -21.10546875 3.59765625 C-31.8186624 2.67820183 -42.56659511 2.63519818 -53.3125 2.4375 C-55.51758479 2.39421854 -57.72266302 2.35060151 -59.92773438 2.30664062 C-65.28508674 2.20055724 -70.64250531 2.09861957 -76 2 C-76 1.67 -76 1.34 -76 1 C-69.03392292 0.85410129 -62.06777186 0.71219192 -55.1015625 0.57275391 C-52.7434719 0.52511894 -50.38539799 0.47664852 -48.02734375 0.42724609 C-32.01587396 0.09253533 -16.01499739 -0.0719253 0 0 Z " fill="#5084A9" transform="translate(359,381)"/>
<path d="M0 0 C1.14775146 3.43720296 0.84144916 5.8533253 0.109375 9.375 C-0.10420654 10.43388428 -0.31778809 11.49276855 -0.5378418 12.58374023 C-0.772854 13.71110596 -1.00786621 14.83847168 -1.25 16 C-3.12587896 25.28602235 -4.79857659 34.54632938 -6.01074219 43.94335938 C-6.51092497 47.61759922 -6.90993555 49.86490332 -9 53 C-9.09733092 45.90565767 -9.10087193 39.01805857 -8 32 C-7.34 32 -6.68 32 -6 32 C-6.061875 30.783125 -6.12375 29.56625 -6.1875 28.3125 C-6.19747092 21.98096632 -4.53349046 16.1038934 -3 10 C-2.61899767 8.25129699 -2.2431404 6.50145586 -1.875 4.75 C-1 1 -1 1 0 0 Z " fill="#CE8639" transform="translate(190,160)"/>
<path d="M0 0 C0.99 0 1.98 0 3 0 C3.33773437 0.63808594 3.67546875 1.27617187 4.0234375 1.93359375 C4.46945313 2.75988281 4.91546875 3.58617187 5.375 4.4375 C5.81585938 5.26121094 6.25671875 6.08492188 6.7109375 6.93359375 C7.83418559 9.13466578 7.83418559 9.13466578 10 10 C10.268125 9.278125 10.53625 8.55625 10.8125 7.8125 C12.00626144 4.98517028 13.21484551 2.49921628 15 0 C15.99 0 16.98 0 18 0 C16.86709234 3.29573139 15.38738351 5.95530075 13.4375 8.8125 C10.78214855 12.91267503 10.25942456 16.15740821 10 21 C9.01 20.67 8.02 20.34 7 20 C7.0721875 19.12730469 7.144375 18.25460937 7.21875 17.35546875 C6.95660137 13.33429608 5.79797512 11.58164317 3.5 8.3125 C0 3.29166667 0 3.29166667 0 0 Z " fill="#5E5E5E" transform="translate(235,413)"/>
<path d="M0 0 C0.99 0 1.98 0 3 0 C3 5.94 3 11.88 3 18 C6.3 18 9.6 18 13 18 C13.33 18.99 13.66 19.98 14 21 C9.38 21 4.76 21 0 21 C0 14.07 0 7.14 0 0 Z " fill="#636363" transform="translate(160,413)"/>
<path d="M0 0 C4.29 0 8.58 0 13 0 C13 0.33 13 0.66 13 1 C11.02 1 9.04 1 7 1 C9.64803754 4.41281372 12.57273832 4.83195549 16.6875 5.6875 C17.86699219 5.93886719 19.04648438 6.19023438 20.26171875 6.44921875 C21.16535156 6.63097656 22.06898438 6.81273438 23 7 C23 7.99 23 8.98 23 10 C23.99 10 24.98 10 26 10 C26 10.66 26 11.32 26 12 C27.32 12.33 28.64 12.66 30 13 C26.97850679 14.34793432 25.87204546 13.95100908 22.71484375 12.7421875 C21.45008945 12.13133345 20.19118856 11.50825438 18.9375 10.875 C17.60181777 10.2247358 16.26587775 9.57500089 14.9296875 8.92578125 C14.26936523 8.6004541 13.60904297 8.27512695 12.92871094 7.93994141 C10.16444838 6.59280079 7.36586718 5.3258356 4.5625 4.0625 C3.67691406 3.66160156 2.79132813 3.26070313 1.87890625 2.84765625 C1.25886719 2.56792969 0.63882813 2.28820313 0 2 C0 1.34 0 0.68 0 0 Z " fill="#E6A559" transform="translate(144,61)"/>
<path d="M0 0 C4.2358357 -0.02469321 8.47163342 -0.04285671 12.70751953 -0.05493164 C14.1489332 -0.05996474 15.59034176 -0.06679173 17.03173828 -0.07543945 C19.10190085 -0.08754983 21.17199601 -0.09323847 23.2421875 -0.09765625 C24.4885498 -0.10289307 25.73491211 -0.10812988 27.01904297 -0.11352539 C30 0 30 0 32 1 C32 1.66 32 2.32 32 3 C21.44 3 10.88 3 0 3 C0 2.01 0 1.02 0 0 Z " fill="#061529" transform="translate(114,379)"/>
<path d="M0 0 C1.31226563 0.00193359 2.62453125 0.00386719 3.9765625 0.00585938 C4.66073242 0.01206299 5.34490234 0.0182666 6.04980469 0.0246582 C8.11926768 0.04278171 10.18827882 0.0451686 12.2578125 0.04492188 C29.0770464 0.11897917 29.0770464 0.11897917 32.828125 3.29296875 C33.6015625 4.25203125 33.6015625 4.25203125 34.390625 5.23046875 C34.060625 5.89046875 33.730625 6.55046875 33.390625 7.23046875 C32.412146 6.58303711 31.43366699 5.93560547 30.42553711 5.26855469 C26.20389371 2.86654979 22.61423689 2.62891404 17.83203125 2.62109375 C16.64830177 2.59628937 16.64830177 2.59628937 15.44065857 2.57098389 C12.94473268 2.52278512 10.4494147 2.50119685 7.953125 2.48046875 C6.25062092 2.45228535 4.54814481 2.42235463 2.84570312 2.390625 C-1.30593945 2.31703454 -5.45725013 2.26728906 -9.609375 2.23046875 C-5.98781107 -0.18390721 -4.30576668 -0.01478549 0 0 Z " fill="#492810" transform="translate(243.609375,109.76953125)"/>
<path d="M0 0 C1.73911652 0.03753891 1.73911652 0.03753891 3.5133667 0.07583618 C7.17070589 0.15717967 10.82743367 0.25409553 14.484375 0.3515625 C16.98304896 0.40988974 19.48174709 0.46719092 21.98046875 0.5234375 C28.0654338 0.66262931 34.14997663 0.81456441 40.234375 0.9765625 C40.234375 1.3065625 40.234375 1.6365625 40.234375 1.9765625 C33.8705046 2.12182489 27.50656728 2.26384653 21.14257812 2.40380859 C18.98598667 2.45159743 16.82941042 2.50007839 14.67285156 2.54931641 C1.52418866 2.84898361 -11.61341195 3.05182552 -24.765625 2.9765625 C-24.765625 2.6465625 -24.765625 2.3165625 -24.765625 1.9765625 C-16.397106 0.29100594 -8.52036552 -0.24998264 0 0 Z " fill="#85B8DA" transform="translate(289.765625,382.0234375)"/>
<path d="M0 0 C4.29 0 8.58 0 13 0 C13 0.66 13 1.32 13 2 C9.37 2 5.74 2 2 2 C2 3.98 2 5.96 2 8 C4.97 8 7.94 8 11 8 C11 8.66 11 9.32 11 10 C7.7 10 4.4 10 1 10 C1 12.64 1 15.28 1 18 C4.96 18 8.92 18 13 18 C13 18.33 13 18.66 13 19 C8.71 19 4.42 19 0 19 C0 12.73 0 6.46 0 0 Z " fill="#232323" transform="translate(143,414)"/>
<path d="M0 0 C1.12067871 0.05236816 2.24135742 0.10473633 3.39599609 0.15869141 C4.60771484 0.21025391 5.81943359 0.26181641 7.06787109 0.31494141 C8.97439453 0.41162109 8.97439453 0.41162109 10.91943359 0.51025391 C12.19818359 0.56697266 13.47693359 0.62369141 14.79443359 0.68212891 C17.96164046 0.82394414 21.12809473 0.97538886 24.29443359 1.13525391 C24.29443359 1.46525391 24.29443359 1.79525391 24.29443359 2.13525391 C23.55281982 2.16031006 22.81120605 2.18536621 22.04711914 2.21118164 C18.69188032 2.32711522 15.33692415 2.44985376 11.98193359 2.57275391 C10.8146875 2.61207031 9.64744141 2.65138672 8.44482422 2.69189453 C7.3265625 2.73378906 6.20830078 2.77568359 5.05615234 2.81884766 C3.5086731 2.87383423 3.5086731 2.87383423 1.92993164 2.92993164 C-0.81304899 3.03686633 -0.81304899 3.03686633 -3.70556641 4.13525391 C-3.89892578 5.37919922 -4.09228516 6.62314453 -4.29150391 7.90478516 C-5.66036264 16.66812193 -7.04123603 25.42199487 -8.70556641 34.13525391 C-9.03556641 34.13525391 -9.36556641 34.13525391 -9.70556641 34.13525391 C-9.73253006 32.34366901 -9.75194557 30.55196917 -9.76806641 28.76025391 C-9.77966797 27.76251953 -9.79126953 26.76478516 -9.80322266 25.73681641 C-9.70556641 23.13525391 -9.70556641 23.13525391 -8.70556641 21.13525391 C-8.55048769 19.42938804 -8.43059294 17.72023124 -8.33056641 16.01025391 C-7.03425617 0.35164933 -7.03425617 0.35164933 0 0 Z " fill="#200901" transform="translate(237.70556640625,107.86474609375)"/>
<path d="M0 0 C0.96804074 3.10515305 0.98121797 5.3511896 0.44140625 8.546875 C0.31709229 9.30838867 0.19277832 10.06990234 0.06469727 10.85449219 C-0.18389038 12.28776855 -0.18389038 12.28776855 -0.4375 13.75 C-0.953125 16.8025 -1.46875 19.855 -2 23 C9.22 23 20.44 23 32 23 C32 23.33 32 23.66 32 24 C27.07048719 24.12357051 22.14187468 24.21432177 17.21118164 24.2746582 C15.53393859 24.29980792 13.8568052 24.33393259 12.17993164 24.37719727 C9.76941915 24.4378346 7.36035448 24.46620284 4.94921875 24.48828125 C3.82407112 24.52699089 3.82407112 24.52699089 2.67619324 24.56648254 C0.5534668 24.56762695 0.5534668 24.56762695 -3 24 C-5.05932617 21.65698242 -5.05932617 21.65698242 -6 19 C-5.505 17.515 -5.505 17.515 -5 16 C-4.34 16 -3.68 16 -3 16 C-2.80083984 14.39318359 -2.80083984 14.39318359 -2.59765625 12.75390625 C-2.4194944 11.35674231 -2.24109681 9.95960841 -2.0625 8.5625 C-1.93198242 7.50192383 -1.93198242 7.50192383 -1.79882812 6.41992188 C-1.11328125 1.11328125 -1.11328125 1.11328125 0 0 Z " fill="#E49235" transform="translate(177,232)"/>
<path d="M0 0 C0.33 0 0.66 0 1 0 C1.16524378 10.07987028 0.19696811 19.1136435 -2 29 C8.23 29 18.46 29 29 29 C29 29.33 29 29.66 29 30 C18.11 30 7.22 30 -4 30 C-3.34929574 22.84225312 -2.60672543 15.878202 -1.4375 8.8125 C-1.29892578 7.95591797 -1.16035156 7.09933594 -1.01757812 6.21679688 C-0.68175894 4.14398188 -0.34138143 2.07190618 0 0 Z " fill="#BD7A36" transform="translate(229,134)"/>
<path d="M0 0 C0.33 0.66 0.66 1.32 1 2 C4.63 2 8.26 2 12 2 C12.33 1.34 12.66 0.68 13 0 C13 0.99 13 1.98 13 3 C9.37 3 5.74 3 2 3 C2 4.98 2 6.96 2 9 C5.96 9 9.92 9 14 9 C14 9.99 14 10.98 14 12 C9.38 12 4.76 12 0 12 C0 8.04 0 4.08 0 0 Z " fill="#5B5B5B" transform="translate(201,422)"/>
<path d="M0 0 C0.66 0 1.32 0 2 0 C-1.12958204 9.40504603 -10.73897669 14.44695166 -19 19 C-19.66 18.34 -20.32 17.68 -21 17 C-20.01 17 -19.02 17 -18 17 C-17.67 16.01 -17.34 15.02 -17 14 C-16.34 14 -15.68 14 -15 14 C-14.67 12.68 -14.34 11.36 -14 10 C-12.35 10.33 -10.7 10.66 -9 11 C-9 10.34 -9 9.68 -9 9 C-8.01 9 -7.02 9 -6 9 C-6 8.01 -6 7.02 -6 6 C-5.01 6 -4.02 6 -3 6 C-2.87625 5.38125 -2.7525 4.7625 -2.625 4.125 C-2 2 -2 2 0 0 Z " fill="#1E0901" transform="translate(306,161)"/>
<path d="M0 0 C2.7095258 1.1013106 5.41761618 2.20594592 8.125 3.3125 C8.88554687 3.62123047 9.64609375 3.92996094 10.4296875 4.24804688 C14.7154088 6.00297586 18.8855237 7.8638901 23 10 C19.42355152 11.2380014 16.66305234 10.74926071 13 10 C13 9.34 13 8.68 13 8 C9.7 8.33 6.4 8.66 3 9 C3 8.34 3 7.68 3 7 C3.66 7 4.32 7 5 7 C4.2575 6.319375 4.2575 6.319375 3.5 5.625 C2 4 2 4 2 2 C1.34 2 0.68 2 0 2 C0 1.34 0 0.68 0 0 Z " fill="#EAA04C" transform="translate(142,117)"/>
<path d="M0 0 C2.45098556 0.39532025 4.63904279 1.21301426 7 2 C7 2.66 7 3.32 7 4 C10.5219721 4.08004482 13.61981469 4.04005702 17 3 C17 8.33333333 17 13.66666667 17 19 C16.34 19 15.68 19 15 19 C15 15.7 15 12.4 15 9 C13.10435574 8.20788071 11.20847629 7.41632424 9.3125 6.625 C8.25675781 6.18414062 7.20101562 5.74328125 6.11328125 5.2890625 C3.41643343 4.17242538 0.71283736 3.07708199 -2 2 C-1.34 1.34 -0.68 0.68 0 0 Z " fill="#C4945E" transform="translate(186,79)"/>
<path d="M0 0 C0.33 0 0.66 0 1 0 C1 5.28 1 10.56 1 16 C6.445 15.505 6.445 15.505 12 15 C12.66 12.03 13.32 9.06 14 6 C14.99 6 15.98 6 17 6 C17.32120156 10.60388896 16.99179956 13.38920743 14 17 C9.54820044 18.83309394 4.64031382 17.62332574 0 17 C0 11.39 0 5.78 0 0 Z " fill="#8A8A8A" transform="translate(122,415)"/>
<path d="M0 0 C0.33 0.66 0.66 1.32 1 2 C-2.00643071 5.35332656 -4.9202982 7.13013668 -9 9 C-10.98 9.99 -10.98 9.99 -13 11 C-13 14.3 -13 17.6 -13 21 C-15.3129482 18.6870518 -15.49580975 17.52095125 -16.125 14.375 C-16.29257812 13.55773437 -16.46015625 12.74046875 -16.6328125 11.8984375 C-16.75398438 11.27195313 -16.87515625 10.64546875 -17 10 C-16.02417969 9.44570312 -15.04835938 8.89140625 -14.04296875 8.3203125 C-12.75777981 7.58859909 -11.47262536 6.85682508 -10.1875 6.125 C-9.54490234 5.76019531 -8.90230469 5.39539063 -8.24023438 5.01953125 C-5.43231202 3.41916099 -2.69035702 1.79357134 0 0 Z " fill="#D3883B" transform="translate(297,173)"/>
<path d="M0 0 C0.66 0 1.32 0 2 0 C2.48009262 2.06228466 2.95903544 4.12483701 3.4375 6.1875 C3.83775391 7.91033203 3.83775391 7.91033203 4.24609375 9.66796875 C4.87312201 12.43923875 5.45899177 15.21091874 6 18 C6.66 18 7.32 18 8 18 C9.99785435 22.1205746 10.17835515 25.45194365 10 30 C6.22833031 26.22833031 5.08825847 20.51102012 3.3125 15.5625 C2.88388672 14.40427734 2.45527344 13.24605469 2.01367188 12.05273438 C1.41329102 10.38887695 1.41329102 10.38887695 0.80078125 8.69140625 C0.24644409 7.16302124 0.24644409 7.16302124 -0.3190918 5.60375977 C-1 3 -1 3 0 0 Z " fill="#D48A39" transform="translate(285,194)"/>
<path d="M0 0 C1.670625 0.061875 1.670625 0.061875 3.375 0.125 C-1.64633462 4.24966772 -5.8927173 4.26933565 -12.234375 4.22265625 C-12.96118469 4.2212413 -13.68799438 4.21982635 -14.43682861 4.21836853 C-16.74959494 4.21278792 -19.06226312 4.20023904 -21.375 4.1875 C-22.94661318 4.18248249 -24.51822789 4.17792002 -26.08984375 4.17382812 C-29.93493343 4.16282485 -33.7799501 4.14557361 -37.625 4.125 C-37.295 3.135 -36.965 2.145 -36.625 1.125 C-36.625 1.785 -36.625 2.445 -36.625 3.125 C-32.2463617 3.0315465 -27.86826804 2.92547246 -23.49023438 2.80761719 C-22.00041111 2.76930002 -20.51049446 2.73445192 -19.02050781 2.703125 C-16.88051952 2.65753271 -14.74117564 2.59953126 -12.6015625 2.5390625 C-11.31330566 2.5076416 -10.02504883 2.4762207 -8.69775391 2.44384766 C-4.59121228 2.01772789 -4.3129834 0.14872357 0 0 Z " fill="#E1903B" transform="translate(264.625,158.875)"/>
<path d="M0 0 C0.33 0 0.66 0 1 0 C1 2.97 1 5.94 1 9 C2.464375 8.87625 3.92875 8.7525 5.4375 8.625 C6.26121094 8.55539062 7.08492187 8.48578125 7.93359375 8.4140625 C8.95646484 8.20910156 8.95646484 8.20910156 10 8 C10.33 7.34 10.66 6.68 11 6 C11.68707555 8.49064888 12 10.37886292 12 13 C12.62599617 14.68236471 13.28752268 16.3523962 14 18 C12.1875 17.8125 12.1875 17.8125 10 17 C8.25 14.4375 8.25 14.4375 7 12 C7.66 12 8.32 12 9 12 C8.67 11.34 8.34 10.68 8 10 C5.36 10 2.72 10 0 10 C0 6.7 0 3.4 0 0 Z " fill="#949494" transform="translate(221,416)"/>
<path d="M0 0 C0.33 0.66 0.66 1.32 1 2 C1.99 2.33 2.98 2.66 4 3 C5.39044898 6.87862084 6 9.86462003 6 14 C5.21625 13.814375 4.4325 13.62875 3.625 13.4375 C1.02910225 12.74037734 1.02910225 12.74037734 -1 14 C-0.67 13.01 -0.34 12.02 0 11 C0.0685495 9.10529184 0.08480372 7.2083166 0.0625 5.3125 C0.05347656 4.31863281 0.04445313 3.32476562 0.03515625 2.30078125 C0.02355469 1.54152344 0.01195312 0.78226563 0 0 Z " fill="#E18C2E" transform="translate(259,234)"/>
<path d="M0 0 C0.33 0.66 0.66 1.32 1 2 C-0.61594832 4.04119788 -2.2856382 6.04072937 -4 8 C-4.66 8 -5.32 8 -6 8 C-6 8.66 -6 9.32 -6 10 C-9.14595675 12.96618779 -11.61948035 14.77535797 -16 15 C-17.35379344 14.37592825 -18.69131055 13.71383061 -20 13 C-19.20335937 12.69707031 -18.40671875 12.39414063 -17.5859375 12.08203125 C-10.19554008 9.16003714 -4.51383307 6.7707496 0 0 Z " fill="#2B0F03" transform="translate(278,150)"/>
<path d="M0 0 C0.33 0 0.66 0 1 0 C1.3359892 5.4878236 0.57204059 9.1314946 -2 14 C-3.75 15.9375 -3.75 15.9375 -6 18 C-7.75624495 20.08451503 -9.4950602 22.18144874 -11.21875 24.29296875 C-13.16382494 26.1569989 -14.36999182 26.61357336 -17 27 C-16.01 26.1028125 -16.01 26.1028125 -15 25.1875 C-7.75335697 17.85827414 -2.90221208 9.87133978 0 0 Z " fill="#CB853B" transform="translate(315,146)"/>
<path d="M0 0 C3.61025316 1.41668162 4.81805825 2.851395 6.375 6.375 C6.73335937 7.14585937 7.09171875 7.91671875 7.4609375 8.7109375 C8 11 8 11 7.1015625 13.2890625 C6.73804688 13.85367187 6.37453125 14.41828125 6 15 C2.35219334 10.8310781 0 5.55196264 0 0 Z " fill="#818181" transform="translate(180,413)"/>
<path d="M0 0 C0.66 0.33 1.32 0.66 2 1 C2.7109375 3.30078125 2.7109375 3.30078125 3.375 6.3125 C4.65692532 11.8432809 6.35455922 17.08620312 8.328125 22.40625 C9.04490105 25.17333893 8.78723886 26.33048013 8 29 C6.46442688 24.73432123 4.94909058 20.46173014 3.4375 16.1875 C2.99986328 14.97255859 2.56222656 13.75761719 2.11132812 12.50585938 C1.70205078 11.34248047 1.29277344 10.17910156 0.87109375 8.98046875 C0.48880615 7.90692139 0.10651855 6.83337402 -0.28735352 5.72729492 C-1 3 -1 3 0 0 Z " fill="#290A01" transform="translate(255,211)"/>
<path d="M0 0 C1.7290774 -0.02725341 3.45828176 -0.04650987 5.1875 -0.0625 C6.15042969 -0.07410156 7.11335937 -0.08570313 8.10546875 -0.09765625 C10.85576513 -0.00486622 13.32479591 0.37888315 16 1 C16 1.66 16 2.32 16 3 C10.72 3 5.44 3 0 3 C0 2.01 0 1.02 0 0 Z " fill="#061629" transform="translate(191,379)"/>
<path d="M0 0 C2 3.75 2 3.75 2 6 C-2.47254497 7.49084832 -6.52745503 7.49084832 -11 6 C-11.33 5.01 -11.66 4.02 -12 3 C-11.34 2.67 -10.68 2.34 -10 2 C-9.030625 2.33 -8.06125 2.66 -7.0625 3 C-4.00837152 4.33339097 -4.00837152 4.33339097 -1 3 C-0.67 2.01 -0.34 1.02 0 0 Z " fill="#6D6D6D" transform="translate(271,427)"/>
<path d="M0 0 C0.66 0 1.32 0 2 0 C2 6.93 2 13.86 2 21 C1.34 21 0.68 21 0 21 C0 14.07 0 7.14 0 0 Z " fill="#151515" transform="translate(333,413)"/>
<path d="M0 0 C0.66 0 1.32 0 2 0 C2 6.93 2 13.86 2 21 C1.34 21 0.68 21 0 21 C0 14.07 0 7.14 0 0 Z " fill="#181818" transform="translate(176,413)"/>
<path d="M0 0 C0.66 0 1.32 0 2 0 C1.46515599 5.34844008 -0.46690767 9.35796103 -3 14 C-3.99 13.67 -4.98 13.34 -6 13 C-2.86206897 2.86206897 -2.86206897 2.86206897 0 0 Z " fill="#6E6E6E" transform="translate(329,413)"/>
<path d="M0 0 C-0.33 1.32 -0.66 2.64 -1 4 C-9.91 3.67 -18.82 3.34 -28 3 C-28 2.67 -28 2.34 -28 2 C-27.31897217 1.97494385 -26.63794434 1.9498877 -25.9362793 1.92407227 C-22.85316245 1.80809048 -19.77034954 1.68537384 -16.6875 1.5625 C-15.61564453 1.52318359 -14.54378906 1.48386719 -13.43945312 1.44335938 C-12.41142578 1.40146484 -11.38339844 1.35957031 -10.32421875 1.31640625 C-9.37635498 1.27974854 -8.42849121 1.24309082 -7.4519043 1.20532227 C-4.8255027 0.98538761 -2.62428643 0 0 0 Z " fill="#3D739C" transform="translate(260,380)"/>
<path d="M0 0 C0.66 0 1.32 0 2 0 C0.66090112 5.4903054 -1.90695293 9.20717643 -6 13 C-8.875 14.4375 -8.875 14.4375 -11 15 C-11 14.01 -11 13.02 -11 12 C-10.01 12 -9.02 12 -8 12 C-8 11.01 -8 10.02 -8 9 C-7.01 9 -6.02 9 -5 9 C-4.34 7.68 -3.68 6.36 -3 5 C-2.34 5 -1.68 5 -1 5 C-0.67 3.35 -0.34 1.7 0 0 Z " fill="#D88F3C" transform="translate(279,144)"/>
<path d="M0 0 C4.29 0 8.58 0 13 0 C13 0.33 13 0.66 13 1 C11.02 1 9.04 1 7 1 C9.12780579 3.34058637 11.11562221 4.70700306 14 6 C10.08428299 7.305239 8.96107003 6.32239848 5.3125 4.5625 C4.31863281 4.08941406 3.32476562 3.61632812 2.30078125 3.12890625 C1.54152344 2.75636719 0.78226563 2.38382813 0 2 C0 1.34 0 0.68 0 0 Z " fill="#DEA766" transform="translate(144,61)"/>
<path d="M0 0 C0.33 0 0.66 0 1 0 C2.125 6.625 2.125 6.625 1 10 C1.99 11.485 1.99 11.485 3 13 C3 13.99 3 14.98 3 16 C2.01 16 1.02 16 0 16 C-1.98 12.535 -1.98 12.535 -4 9 C-3.34 8.67 -2.68 8.34 -2 8 C-2.33 7.34 -2.66 6.68 -3 6 C-2.34 5.67 -1.68 5.34 -1 5 C-0.34444881 2.47266765 -0.34444881 2.47266765 0 0 Z " fill="#767676" transform="translate(308,418)"/>
<path d="M0 0 C1.8871875 0.061875 1.8871875 0.061875 3.8125 0.125 C4.4725 1.445 5.1325 2.765 5.8125 4.125 C2.8425 4.125 -0.1275 4.125 -3.1875 4.125 C-3.8475 5.445 -4.5075 6.765 -5.1875 8.125 C-5.8475 6.145 -6.5075 4.165 -7.1875 2.125 C-4.09861478 0.06574319 -3.47814073 -0.1140374 0 0 Z " fill="#7B7B7B" transform="translate(267.1875,412.875)"/>
<path d="M0 0 C0.66 0 1.32 0 2 0 C2.28307925 7.24997422 1.50974035 13.90961228 0 21 C-0.33 21 -0.66 21 -1 21 C-1.09733092 13.90565767 -1.10087193 7.01805857 0 0 Z " fill="#DA8C35" transform="translate(182,192)"/>
<path d="M0 0 C0.33 0 0.66 0 1 0 C1.02696365 1.79158489 1.04637917 3.58328473 1.0625 5.375 C1.07410156 6.37273437 1.08570313 7.37046875 1.09765625 8.3984375 C1 11 1 11 0 13 C-0.22950319 15.204364 -0.41075933 17.41392173 -0.5625 19.625 C-0.64628906 20.81351563 -0.73007813 22.00203125 -0.81640625 23.2265625 C-0.87699219 24.14179688 -0.93757812 25.05703125 -1 26 C-1.66 26 -2.32 26 -3 26 C-3.33 26.66 -3.66 27.32 -4 28 C-2.88156738 18.62420318 -1.65562772 9.29969612 0 0 Z " fill="#2F1102" transform="translate(193,144)"/>
<path d="M0 0 C0.33 0 0.66 0 1 0 C1 2.64 1 5.28 1 8 C0.34 8 -0.32 8 -1 8 C-1 13.28 -1 18.56 -1 24 C-1.66 24 -2.32 24 -3 24 C-3.33 24.99 -3.66 25.98 -4 27 C-3.34 19.41 -2.68 11.82 -2 4 C-1.34 4 -0.68 4 0 4 C0 2.68 0 1.36 0 0 Z " fill="#936A3F" transform="translate(200,102)"/>
<path d="M0 0 C0.66 0.66 1.32 1.32 2 2 C-0.296537 3.1482685 -1.58313167 3.11561175 -4.1328125 3.09765625 C-4.93847656 3.09443359 -5.74414062 3.09121094 -6.57421875 3.08789062 C-7.41597656 3.07951172 -8.25773437 3.07113281 -9.125 3.0625 C-9.97449219 3.05798828 -10.82398438 3.05347656 -11.69921875 3.04882812 C-13.79950909 3.03702874 -15.8997633 3.01909306 -18 3 C-18 2.67 -18 2.34 -18 2 C-16.12612523 1.6603981 -14.25083303 1.32861309 -12.375 1 C-11.33085937 0.814375 -10.28671875 0.62875 -9.2109375 0.4375 C-6.06344618 0.00864473 -3.1698837 -0.21798627 0 0 Z " fill="#9DBED5" transform="translate(283,382)"/>
<path d="M0 0 C7.59 0.33 15.18 0.66 23 1 C23 1.33 23 1.66 23 2 C15.74 2 8.48 2 1 2 C1 3.65 1 5.3 1 7 C0.67 6.01 0.34 5.02 0 4 C-2.01508358 3.26676204 -2.01508358 3.26676204 -4 3 C-3.01 3 -2.02 3 -1 3 C-0.67 2.01 -0.34 1.02 0 0 Z " fill="#CF873B" transform="translate(203,82)"/>
<path d="M0 0 C-0.3125 1.9375 -0.3125 1.9375 -1 4 C-4.542799 5.180933 -7.28359861 5.27028374 -11 5 C-11.66 4.01 -12.32 3.02 -13 2 C-12.06027344 1.90912109 -12.06027344 1.90912109 -11.1015625 1.81640625 C-9.87566406 1.69072266 -9.87566406 1.69072266 -8.625 1.5625 C-7.81289063 1.48128906 -7.00078125 1.40007812 -6.1640625 1.31640625 C-3.85304959 0.97851447 -2.33455672 0 0 0 Z " fill="#606060" transform="translate(356,429)"/>
<path d="M0 0 C0.99 0 1.98 0 3 0 C4.65 3.3 6.3 6.6 8 10 C7.01 11.485 7.01 11.485 6 13 C4.99193149 11.40089132 3.99379615 9.79551738 3 8.1875 C2.443125 7.29417969 1.88625 6.40085937 1.3125 5.48046875 C0 3 0 3 0 0 Z " fill="#686868" transform="translate(235,413)"/>
<path d="M0 0 C2.0622048 -0.054348 4.12482816 -0.09294961 6.1875 -0.125 C7.33605469 -0.14820312 8.48460937 -0.17140625 9.66796875 -0.1953125 C12.96222999 -0.00221395 15.12012405 0.41001364 18 2 C18.33 2.99 18.66 3.98 19 5 C12.73 3.68 6.46 2.36 0 1 C0 0.67 0 0.34 0 0 Z " fill="#D08838" transform="translate(272,84)"/>
<path d="M0 0 C0.33 0.66 0.66 1.32 1 2 C1.66 2 2.32 2 3 2 C3.16435547 2.84884766 3.16435547 2.84884766 3.33203125 3.71484375 C3.49058594 4.44832031 3.64914062 5.18179687 3.8125 5.9375 C3.96332031 6.66839844 4.11414063 7.39929688 4.26953125 8.15234375 C4.63111328 9.06693359 4.63111328 9.06693359 5 10 C5.99 10.33 6.98 10.66 8 11 C6.02 11.99 6.02 11.99 4 13 C4 12.34 4 11.68 4 11 C3.34 11 2.68 11 2 11 C-0.32590854 7.36576791 -0.16265833 4.22911669 0 0 Z " fill="#7D7D7D" transform="translate(338,420)"/>
<path d="M0 0 C3.73069283 0.74613857 6.57404607 1.53173403 10 3 C10 3.33 10 3.66 10 4 C7.03 3.67 4.06 3.34 1 3 C1 7.62 1 12.24 1 17 C0.67 17 0.34 17 0 17 C0 11.39 0 5.78 0 0 Z " fill="#DFB77E" transform="translate(135,78)"/>
<path d="M0 0 C6.6 0.66 13.2 1.32 20 2 C20 2.33 20 2.66 20 3 C10.595 3.495 10.595 3.495 1 4 C0.67 2.68 0.34 1.36 0 0 Z " fill="#79A6C4" transform="translate(66,381)"/>
<path d="M0 0 C5.91969002 1.75990784 11.41634992 4.39694605 17 7 C17 7.33 17 7.66 17 8 C9.375 7.125 9.375 7.125 6 6 C6 5.34 6 4.68 6 4 C4.35 3.67 2.7 3.34 1 3 C0.67 2.01 0.34 1.02 0 0 Z " fill="#E8AC60" transform="translate(166,128)"/>
<path d="M0 0 C3.90590763 -0.17754126 6.68902394 -0.20731737 10 2 C10.33 2.66 10.66 3.32 11 4 C13.52733235 4.65555119 13.52733235 4.65555119 16 5 C15.67 5.99 15.34 6.98 15 8 C10.05 5.69 5.1 3.38 0 1 C0 0.67 0 0.34 0 0 Z " fill="#EAB06B" transform="translate(181,115)"/>
<path d="M0 0 C6.44541485 6.26637555 6.44541485 6.26637555 9 10 C8.67 10.99 8.34 11.98 8 13 C7.7525 12.38125 7.505 11.7625 7.25 11.125 C5.77472123 8.6170261 4.65125048 8.07707051 2 7 C0 6 0 6 -0.6875 4.0625 C-1 2 -1 2 0 0 Z " fill="#2E1507" transform="translate(304,97)"/>
<path d="M0 0 C0.33 0 0.66 0 1 0 C1.04254356 1.99954746 1.04080783 4.00041636 1 6 C0.67 6.33 0.34 6.66 0 7 C-0.39569108 9.01311449 -0.74252191 11.03597208 -1.0625 13.0625 C-1.23910156 14.16722656 -1.41570312 15.27195313 -1.59765625 16.41015625 C-1.73042969 17.26480469 -1.86320313 18.11945313 -2 19 C-3.00109515 15.68929162 -3.10356134 12.69915231 -3.0625 9.25 C-3.05347656 8.26515625 -3.04445312 7.2803125 -3.03515625 6.265625 C-3.02355469 5.51796875 -3.01195312 4.7703125 -3 4 C-3.66 3.67 -4.32 3.34 -5 3 C-3.35 3 -1.7 3 0 3 C0 2.01 0 1.02 0 0 Z " fill="#B37B40" transform="translate(194,137)"/>
<path d="M0 0 C3.375 -0.125 3.375 -0.125 7 0 C7.66 0.66 8.32 1.32 9 2 C10.98821313 2.39764263 12.98944339 2.73775349 15 3 C14.01 4.485 14.01 4.485 13 6 C8.52761347 4.58192622 4.28853694 2.88695626 0 1 C0 0.67 0 0.34 0 0 Z " fill="#E8A251" transform="translate(167,109)"/>
<path d="M0 0 C0.66 0.66 1.32 1.32 2 2 C1.7578125 5.0390625 1.7578125 5.0390625 1.125 8.625 C0.92132813 9.81351563 0.71765625 11.00203125 0.5078125 12.2265625 C0.34023437 13.14179688 0.17265625 14.05703125 0 15 C-0.99 15 -1.98 15 -3 15 C-2.35812082 9.86496656 -1.31727753 5.0056546 0 0 Z " fill="#ED952A" transform="translate(213,238)"/>
<path d="M0 0 C2.45098556 0.39532025 4.63904279 1.21301426 7 2 C7 2.66 7 3.32 7 4 C8.32 4.33 9.64 4.66 11 5 C11 5.66 11 6.32 11 7 C6.52761347 5.58192622 2.28853694 3.88695626 -2 2 C-1.34 1.34 -0.68 0.68 0 0 Z " fill="#E7AA63" transform="translate(186,79)"/>
<path d="M0 0 C0.66 0 1.32 0 2 0 C2.69710731 1.28650706 3.38242876 2.57940665 4.0625 3.875 C4.63677734 4.95394531 4.63677734 4.95394531 5.22265625 6.0546875 C5.47917969 6.69664062 5.73570312 7.33859375 6 8 C5 10 5 10 3 11 C0 4.5 0 4.5 0 0 Z " fill="#5F5F5F" transform="translate(312,413)"/>
<path d="M0 0 C6.875 0.875 6.875 0.875 8 2 C8.04080783 3.99958364 8.04254356 6.00045254 8 8 C7.34 8 6.68 8 6 8 C6 6.68 6 5.36 6 4 C5.195625 3.71125 4.39125 3.4225 3.5625 3.125 C1 2 1 2 0 0 Z " fill="#444444" transform="translate(266,423)"/>
<path d="M0 0 C0.33 0 0.66 0 1 0 C1.23268915 6.28260706 0.40454548 11.88019467 -1 18 C-1.66 18 -2.32 18 -3 18 C-2.32418477 11.91766294 -1.26361972 5.98685848 0 0 Z " fill="#CB823D" transform="translate(218,200)"/>
<path d="M0 0 C0.99 0.33 1.98 0.66 3 1 C1.68 4.3 0.36 7.6 -1 11 C-1.66 10.01 -2.32 9.02 -3 8 C-2.24451463 5.1524013 -1.31613642 2.63227284 0 0 Z " fill="#6B6B6B" transform="translate(197,413)"/>
<path d="M0 0 C2.38110152 4.76220304 2.42033174 6.78788648 2 12 C1.01 12.66 0.02 13.32 -1 14 C-0.67 9.38 -0.34 4.76 0 0 Z " fill="#D88936" transform="translate(317,136)"/>
<path d="M0 0 C0.66 0 1.32 0 2 0 C0.5682479 5.01113235 -1.98445693 6.94469549 -6 10 C-6 8.68 -6 7.36 -6 6 C-5.01 6 -4.02 6 -3 6 C-2.87625 5.38125 -2.7525 4.7625 -2.625 4.125 C-2 2 -2 2 0 0 Z " fill="#301305" transform="translate(306,161)"/>
<path d="M0 0 C1.258125 -0.04125 2.51625 -0.0825 3.8125 -0.125 C4.52019531 -0.14820313 5.22789062 -0.17140625 5.95703125 -0.1953125 C8 0 8 0 11 2 C11 2.99 11 3.98 11 5 C9.53890937 4.74445946 8.08111904 4.46999628 6.625 4.1875 C5.81289063 4.03667969 5.00078125 3.88585937 4.1640625 3.73046875 C2 3 2 3 0 0 Z " fill="#8F8F8F" transform="translate(345,413)"/>
<path d="M0 0 C2.7885289 -0.22107787 5.34653181 -0.28107535 8.125 -0.1875 C8.87910156 -0.17396484 9.63320313 -0.16042969 10.41015625 -0.14648438 C12.27374127 -0.11109985 14.13695978 -0.05729167 16 0 C16 0.33 16 0.66 16 1 C15.08476562 1.04898437 14.16953125 1.09796875 13.2265625 1.1484375 C12.03804688 1.22320312 10.84953125 1.29796875 9.625 1.375 C7.84996094 1.47941406 7.84996094 1.47941406 6.0390625 1.5859375 C2.89437681 1.70217346 2.89437681 1.70217346 1 4 C0.01 3.67 -0.98 3.34 -2 3 C-1.34 2.01 -0.68 1.02 0 0 Z " fill="#93BED8" transform="translate(260,381)"/>
<path d="M0 0 C8.57142857 0.71428571 8.57142857 0.71428571 12 4 C9.5332355 4.88336837 8.36140628 5.1312406 5.859375 4.22265625 C5.16328125 3.83980469 4.4671875 3.45695312 3.75 3.0625 C3.04359375 2.68222656 2.3371875 2.30195312 1.609375 1.91015625 C1.07828125 1.60980469 0.5471875 1.30945313 0 1 C0 0.67 0 0.34 0 0 Z " fill="#E5AB64" transform="translate(138,96)"/>
<path d="M0 0 C0.66 0 1.32 0 2 0 C3.99785435 4.1205746 4.17835515 7.45194365 4 12 C1.49484216 9.49484216 0.94900914 7.38931835 0 4 C0 2.68 0 1.36 0 0 Z " fill="#DF8F3B" transform="translate(291,212)"/>
<path d="M0 0 C7.38461538 -0.49230769 7.38461538 -0.49230769 10.5 2 C10.995 2.66 11.49 3.32 12 4 C11.67 4.66 11.34 5.32 11 6 C9.39125 5.071875 9.39125 5.071875 7.75 4.125 C5.20219016 2.6676321 2.64740645 1.27075509 0 0 Z " fill="#351605" transform="translate(266,111)"/>
<path d="M0 0 C0.6875 1.6875 0.6875 1.6875 1 4 C-0.3125 6.75 -0.3125 6.75 -2 9 C-2.66 9 -3.32 9 -4 9 C-4 8.01 -4 7.02 -4 6 C-3.34 6 -2.68 6 -2 6 C-1.855625 5.195625 -1.71125 4.39125 -1.5625 3.5625 C-1 1 -1 1 0 0 Z " fill="#3F3F3F" transform="translate(324,425)"/>
<path d="M0 0 C2.375 0.1875 2.375 0.1875 5 1 C6.3125 3.5625 6.3125 3.5625 7 6 C5.1875 5.8125 5.1875 5.8125 3 5 C1.25 2.4375 1.25 2.4375 0 0 Z " fill="#727272" transform="translate(228,428)"/>
<path d="M0 0 C2.97 0 5.94 0 9 0 C9 1.32 9 2.64 9 4 C6.03 3.01 3.06 2.02 0 1 C0 0.67 0 0.34 0 0 Z " fill="#E9AF65" transform="translate(157,105)"/>
<path d="M0 0 C-0.33 1.32 -0.66 2.64 -1 4 C-3.31 4 -5.62 4 -8 4 C-5.57415142 1.34311822 -3.76063134 0 0 0 Z " fill="#5888AF" transform="translate(260,380)"/>
<path d="M0 0 C2.64 0 5.28 0 8 0 C8.33 1.32 8.66 2.64 9 4 C6.03 3.01 3.06 2.02 0 1 C0 0.67 0 0.34 0 0 Z " fill="#E8AC5A" transform="translate(148,101)"/>
<path d="M0 0 C0.66 0 1.32 0 2 0 C1.6875 2.875 1.6875 2.875 1 6 C0.01 6.66 -0.98 7.32 -2 8 C-1.125 2.25 -1.125 2.25 0 0 Z " fill="#3E3E3E" transform="translate(193,421)"/>
<path d="M0 0 C0.66 0 1.32 0 2 0 C2.79953138 3.28696233 3.09658936 4.71023192 2 8 C1.34 8 0.68 8 0 8 C0 5.36 0 2.72 0 0 Z " fill="#434343" transform="translate(232,417)"/>
<path d="M0 0 C1.98 0.99 1.98 0.99 4 2 C4 3.65 4 5.3 4 7 C3.01 6.67 2.02 6.34 1 6 C0.67 4.02 0.34 2.04 0 0 Z " fill="#636363" transform="translate(180,413)"/>
<path d="M0 0 C3.63 0.33 7.26 0.66 11 1 C7 3 7 3 3.25 2.125 C1.64125 1.568125 1.64125 1.568125 0 1 C0 0.67 0 0.34 0 0 Z " fill="#5B92B5" transform="translate(145,382)"/>
<path d="M0 0 C0.66 0 1.32 0 2 0 C1.814375 0.7425 1.62875 1.485 1.4375 2.25 C1.00796892 4.94990963 1.14877026 6.44631077 2 9 C-0.0625 7.25 -0.0625 7.25 -2 5 C-1.80984746 2.78155374 -1.58477845 1.58477845 0 0 Z " fill="#6A6A6A" transform="translate(105,365)"/>
<path d="M0 0 C0.66 0.33 1.32 0.66 2 1 C2.4140625 3.28515625 2.4140625 3.28515625 2.625 6.0625 C2.69976562 6.98160156 2.77453125 7.90070313 2.8515625 8.84765625 C2.92503906 9.91306641 2.92503906 9.91306641 3 11 C0.81024227 7.71536341 0.00193437 4.79303725 -1 1 C-0.67 0.67 -0.34 0.34 0 0 Z " fill="#311203" transform="translate(255,211)"/>
<path d="M0 0 C2.97 0.99 5.94 1.98 9 3 C9 3.33 9 3.66 9 4 C6.36 3.67 3.72 3.34 1 3 C0.67 2.01 0.34 1.02 0 0 Z " fill="#EBB266" transform="translate(183,136)"/>
<path d="M0 0 C3.14737182 0.69941596 6.02588876 1.76078698 9 3 C6.21176345 4.0326802 5.1322726 4.04509293 2.25 3.0625 C1.5075 2.711875 0.765 2.36125 0 2 C0 1.34 0 0.68 0 0 Z " fill="#E6AF69" transform="translate(156,124)"/>
<path d="M0 0 C2.97 0.99 5.94 1.98 9 3 C8.34 3.66 7.68 4.32 7 5 C4.69 4.01 2.38 3.02 0 2 C0 1.34 0 0.68 0 0 Z " fill="#E6AA67" transform="translate(147,83)"/>
</svg>
